<svg width="199" height="35" viewBox="0 0 199 35" fill="none" xmlns="http://www.w3.org/2000/svg">
<g id="Group 4">
<path id="Vector" d="M0 4.76094H3.87145V35.0001H11.3004V4.76094H15.1196V0.104736H0V4.76094Z" fill="white"/>
<path id="Vector_2" d="M33.7444 1.30802C33.1166 0.858099 32.3318 0.544198 31.3901 0.366321C30.4484 0.188443 29.3498 0.104736 28.0942 0.104736H18.3109V35.0001H25.7399V20.1421H26.4723C27.1734 20.1421 27.6338 20.2781 27.8535 20.5606C28.0732 20.8431 28.1988 21.3245 28.1988 22.0255V35.0001H35.6278V22.9149C35.6278 21.586 35.4499 20.5816 35.1046 19.8805C34.7593 19.1795 33.9746 18.5517 32.7504 17.9971C33.7653 17.61 34.4978 17.0973 34.9477 16.459C35.3976 15.8103 35.6278 14.879 35.6278 13.6548V6.38276C35.6278 5.09577 35.4708 4.03897 35.1569 3.21236C34.843 2.39622 34.3722 1.75795 33.7444 1.29756V1.30802ZM28.1988 13.7071C28.1988 14.3663 28.1046 14.8372 27.9163 15.1197C27.728 15.4022 27.3303 15.5382 26.7444 15.5382H25.7504V4.86557H26.4305C27.1943 4.86557 27.6861 4.98067 27.8954 5.21086C28.1046 5.44106 28.2093 5.93284 28.2093 6.69666V13.7071H28.1988Z" fill="white"/>
<path id="Vector_3" d="M42.9522 0.104736L38.7668 35.0001H45.568L46.4051 27.6234H49.7534L50.1719 35.0001H57.5486L53.2063 0.104736H42.9522ZM46.8236 22.9672L48.1316 7.95227L49.3349 22.9672H46.8236Z" fill="white"/>
<path id="Vector_4" d="M68.1166 0.104736H60.6876V35.0001H68.1166V0.104736Z" fill="white"/>
<path id="Vector_5" d="M79.888 0H72.302V34.9477H84.8057V30.1345H79.888V0Z" fill="white"/>
<path id="Vector_6" d="M99.5591 0.0522461H88.3633V34.9999H99.3498C103.567 34.9999 105.68 33.2421 105.68 29.7159V21.4499C105.68 20.7907 105.649 20.2152 105.576 19.7234C105.502 19.2316 105.366 18.8026 105.157 18.4364C104.948 18.0702 104.655 17.7354 104.268 17.4424C103.88 17.1494 103.378 16.8564 102.75 16.5844C104.707 15.8206 105.68 14.68 105.68 13.1838V5.85942C105.68 4.08065 105.178 2.66809 104.184 1.62175C103.19 0.575415 101.652 0.0522461 99.5591 0.0522461ZM98.2512 28.3557V28.8998C98.2512 29.13 98.2302 29.2765 98.1989 29.3392C98.1256 29.6218 97.9582 29.8519 97.6966 30.0508C97.435 30.2496 97.0584 30.3333 96.5666 30.3333H95.7818V18.6666H96.4619C97.163 18.6666 97.6338 18.8026 97.8745 19.0851C98.1152 19.3676 98.2407 19.9431 98.2407 20.8116V28.3452L98.2512 28.3557ZM98.2512 12.1898C98.2512 12.8908 98.1675 13.3826 97.9896 13.6756C97.8117 13.9685 97.435 14.115 96.8386 14.115H95.7923V5.07467H96.9433C97.5397 5.07467 97.9059 5.25254 98.0419 5.59784C98.1779 5.94313 98.2512 6.43491 98.2512 7.06271V12.1898Z" fill="white"/>
<path id="Vector_7" d="M117.451 0H109.865V34.9477H122.369V30.1345H117.451V0Z" fill="white"/>
<path id="Vector_8" d="M129.013 0.104736L124.828 35.0001H131.629L132.466 27.6234H135.815L136.233 35.0001H143.61L139.268 0.104736H129.013ZM132.885 22.9672L134.193 7.95227L135.396 22.9672H132.885Z" fill="white"/>
<path id="Vector_9" d="M147.01 5.07467H153.812L146.069 30.2914V34.9476H161.345V30.2914H154.021L161.502 4.97003V0.0522461H147.01V5.07467Z" fill="white"/>
<path id="Vector_10" d="M164.997 34.9999H177.03V30.3437H172.426V18.3632H177.03V13.707H172.426V5.07467H177.03V0.0522461H164.997V34.9999Z" fill="white"/>
<path id="Vector_11" d="M196.753 1.30802C196.126 0.858099 195.341 0.544198 194.399 0.366321C193.457 0.188443 192.359 0.104736 191.103 0.104736H181.32V35.0001H188.749V20.1421H189.481C190.182 20.1421 190.643 20.2781 190.862 20.5606C191.082 20.8431 191.208 21.3245 191.208 22.0255V35.0001H198.637V22.9149C198.637 21.586 198.459 20.5816 198.114 19.8805C197.768 19.1795 196.984 18.5517 195.759 17.9971C196.774 17.61 197.507 17.0973 197.957 16.459C198.407 15.8103 198.637 14.879 198.637 13.6548V6.38276C198.637 5.09577 198.48 4.03897 198.166 3.21236C197.852 2.39622 197.381 1.75795 196.753 1.29756V1.30802ZM191.208 13.7071C191.208 14.3663 191.114 14.8372 190.925 15.1197C190.737 15.4022 190.339 15.5382 189.753 15.5382H188.759V4.86557H189.439C190.203 4.86557 190.695 4.98067 190.904 5.21086C191.114 5.44106 191.218 5.93284 191.218 6.69666V13.7071H191.208Z" fill="white"/>
</g>
</svg>
