<svg width="163" height="35" viewBox="0 0 163 35" fill="none" xmlns="http://www.w3.org/2000/svg">
<g id="id1">
<g id="g6658">
<g id="g6660">
<g id="id3">
<path id="path6665" fill-rule="evenodd" clip-rule="evenodd" d="M3.30314 34.7641V4.76547H0V0H12.4015V4.76547H9.17702V34.7641H3.30314Z" fill="#140F3F"/>
</g>
</g>
<g id="g6667">
<g id="id4">
<path id="path6672" fill-rule="evenodd" clip-rule="evenodd" d="M13.4952 34.7641V0H21.4164C22.7411 0 23.6947 0.0761885 24.3558 0.22365C25.0095 0.371112 25.5256 0.663577 25.9656 1.10105C26.5579 1.61716 26.9192 2.27091 27.1428 3.01067C27.3591 3.74307 27.4353 5.05793 27.4353 6.75128V12.9864C27.4353 14.38 27.2878 15.4048 26.9953 15.9897C26.7029 16.5747 25.9631 17.167 24.9407 17.6757C25.8181 17.9682 26.4792 18.4843 26.9192 19.1454C27.2878 19.8065 27.5115 20.7626 27.5115 22.0086V34.8402H21.4926V21.785C21.4926 21.1239 21.4164 20.6078 21.2001 20.3915C20.9838 20.1752 20.6152 20.0228 20.0229 20.0228H19.5141V34.7641H13.4952ZM19.4379 4.69665V15.2574C19.5854 15.2574 19.7304 15.3262 19.8779 15.3262C20.539 15.3262 20.9789 15.1787 21.1239 14.8862C21.2689 14.5938 21.4164 14.0088 21.4164 12.984V6.74882C21.4164 5.94024 21.3476 5.42413 21.1239 5.13166C20.9765 4.8392 20.6152 4.69173 20.1703 4.69173H19.4379V4.69665Z" fill="#140F3F"/>
</g>
</g>
<g id="g6674">
<g id="id5">
<path id="path6679" fill-rule="evenodd" clip-rule="evenodd" d="M28.3052 34.7641L31.2397 0H39.237L43.0538 34.7641H37.1799L36.74 27.504H34.1004L33.6605 34.7641H28.3027H28.3052ZM34.2479 22.886H36.3025L35.1253 6.60382L34.2479 22.886Z" fill="#140F3F"/>
</g>
</g>
<g id="g6681">
<g id="id6">
<path id="path6686" fill-rule="evenodd" clip-rule="evenodd" d="M43.7789 34.7641V0H49.729V34.7641H43.7789Z" fill="#140F3F"/>
</g>
</g>
<g id="g6688">
<g id="id7">
<path id="path6693" fill-rule="evenodd" clip-rule="evenodd" d="M60.5748 30.0748V34.7641H51.0365V0H56.9104V30.0748H60.5748Z" fill="#140F3F"/>
</g>
</g>
<g id="g6695">
<g id="id8">
<path id="path6700" fill-rule="evenodd" clip-rule="evenodd" d="M64.2465 34.7641L58.0802 0H65.1239C66.8861 0 68.1346 0.0761885 68.8646 0.292465C69.5969 0.439927 70.2581 0.808581 70.9192 1.39351C71.5041 1.90963 71.944 2.41837 72.2365 3.07949C72.529 3.74061 72.7526 4.76547 73.0451 6.15898L73.9987 11.6618C74.2223 12.8316 74.2223 13.7877 73.9987 14.4488C73.775 15.1099 73.2663 15.6948 72.3815 16.2822C73.4137 16.6509 74.1437 17.167 74.5836 17.8207C75.0235 18.4818 75.3922 19.5141 75.6847 20.9076L77.1543 29.4137C77.3706 30.731 77.3706 31.832 77.1543 32.5693C76.9307 33.3706 76.422 33.9629 75.6158 34.2553C74.8073 34.6166 73.7062 34.7641 72.2365 34.7641H64.2465ZM66.5175 13.7877L67.1024 13.8638C67.5423 13.8638 67.8397 13.7877 67.9872 13.7164C68.1346 13.6402 68.2796 13.4927 68.2796 13.2003C68.3484 12.984 68.2796 12.5391 68.2034 12.0304L67.326 6.89629C67.1786 5.9427 66.9574 5.35777 66.7411 5.13412C66.5175 4.84165 66.08 4.76547 65.4164 4.76547H64.9003L66.5175 13.7877ZM67.326 18.5605L69.3807 30.1461C69.5281 30.1461 69.8206 30.2222 70.0344 30.2222C70.6267 30.2222 70.988 30.0748 71.0666 29.8536C71.2141 29.6299 71.1355 29.045 70.9905 28.2364L69.6731 20.6839C69.5257 19.7304 69.3045 19.1454 69.0882 18.9218C68.8645 18.7055 68.4271 18.5605 67.6873 18.5605H67.326Z" fill="#140F3F"/>
</g>
</g>
<g id="g6702">
<g id="id9">
<path id="path6707" fill-rule="evenodd" clip-rule="evenodd" d="M88.0788 30.0748V34.7641H78.5405V0H84.4144V30.0748H88.0788Z" fill="#140F3F"/>
</g>
</g>
<g id="g6709">
<g id="id10">
<path id="path6714" fill-rule="evenodd" clip-rule="evenodd" d="M88.9586 34.7641L91.8218 0H99.8192L103.631 34.7641H97.6883L97.2484 27.504H94.6089L94.1689 34.7641H88.9586ZM94.9013 22.886H96.956L95.7099 6.60382L94.9013 22.886Z" fill="#140F3F"/>
</g>
</g>
<g id="g6716">
<g id="id11">
<path id="path6721" fill-rule="evenodd" clip-rule="evenodd" d="M103.253 34.7641V30.5147L109.271 4.84165H103.769V0H115.285V4.54919L109.274 30.0748H115.285V34.7641H103.255H103.253Z" fill="#140F3F"/>
</g>
</g>
<g id="g6723">
<g id="id12">
<path id="path6728" fill-rule="evenodd" clip-rule="evenodd" d="M116.6 34.7641V0H126.284V4.76547H122.543V13.4952H126.284V18.1918H122.543V30.2222H126.284V34.8402H116.6V34.7641Z" fill="#140F3F"/>
</g>
</g>
<g id="g6776">
<g id="id19">
<path id="path6781" fill-rule="evenodd" clip-rule="evenodd" d="M127.38 34.7641V0H135.301C136.626 0 137.579 0.0761885 138.24 0.22365C138.894 0.371112 139.41 0.663577 139.85 1.10105C140.442 1.61716 140.804 2.27091 141.027 3.01067C141.244 3.74307 141.32 5.05793 141.32 6.75128V12.9864C141.32 14.38 141.172 15.4048 140.88 15.9897C140.587 16.5747 139.848 17.167 138.825 17.6757C139.703 17.9682 140.364 18.4843 140.804 19.1454C141.172 19.8065 141.396 20.7626 141.396 22.0086V34.8402H135.377V21.785C135.377 21.1239 135.301 20.6078 135.085 20.3915C134.868 20.1752 134.5 20.0228 133.907 20.0228H133.399V34.7641H127.38ZM133.322 4.69665V15.2574C133.47 15.2574 133.615 15.3262 133.762 15.3262C134.424 15.3262 134.863 15.1787 135.008 14.8862C135.153 14.5938 135.301 14.0088 135.301 12.984V6.74882C135.301 5.94024 135.232 5.42413 135.008 5.13166C134.861 4.8392 134.5 4.69173 134.055 4.69173H133.322V4.69665Z" fill="#140F3F"/>
</g>
</g>
</g>
</g>
</svg>
