<?xml version="1.0" encoding="UTF-8" standalone="no"?>
<svg
   xmlns:dc="http://purl.org/dc/elements/1.1/"
   xmlns:cc="http://creativecommons.org/ns#"
   xmlns:rdf="http://www.w3.org/1999/02/22-rdf-syntax-ns#"
   xmlns:svg="http://www.w3.org/2000/svg"
   xmlns="http://www.w3.org/2000/svg"
   xmlns:sodipodi="http://sodipodi.sourceforge.net/DTD/sodipodi-0.dtd"
   xmlns:inkscape="http://www.inkscape.org/namespaces/inkscape"
   width="1207"
   height="745"
   viewBox="0 0 1207 745"
   fill="none"
   version="1.1"
   id="svg338"
   sodipodi:docname="where_do_i_put_this_code.svg"
   inkscape:version="0.92.5 (2060ec1f9f, 2020-04-08)">
  <metadata
     id="metadata342">
    <rdf:RDF>
      <cc:Work
         rdf:about="">
        <dc:format>image/svg+xml</dc:format>
        <dc:type
           rdf:resource="http://purl.org/dc/dcmitype/StillImage" />
        <dc:title></dc:title>
      </cc:Work>
    </rdf:RDF>
  </metadata>
  <sodipodi:namedview
     pagecolor="#ffffff"
     bordercolor="#666666"
     borderopacity="1"
     objecttolerance="10"
     gridtolerance="10"
     guidetolerance="10"
     inkscape:pageopacity="0"
     inkscape:pageshadow="2"
     inkscape:window-width="1920"
     inkscape:window-height="1031"
     id="namedview340"
     showgrid="false"
     inkscape:zoom="0.66551226"
     inkscape:cx="512.45088"
     inkscape:cy="310.42164"
     inkscape:window-x="0"
     inkscape:window-y="25"
     inkscape:window-maximized="1"
     inkscape:current-layer="svg338" />
  <g
     filter="url(#filter0_d_196_1378)"
     id="g4">
    <path
       d="M579.61 26H122.54C106.844 26 94.1201 38.7241 94.1201 54.42V258.5C94.1201 274.196 106.844 286.92 122.54 286.92H579.61C595.306 286.92 608.03 274.196 608.03 258.5V54.42C608.03 38.7241 595.306 26 579.61 26Z"
       fill="#AEAAF7"
       id="path2" />
  </g>
  <path
     d="M222.26 109.22H215.23V94.6001H201.52V109.22H194.49V75.1001H201.52V88.9301H215.23V75.1001H222.26V109.22Z"
     fill="black"
     id="path10" />
  <path
     d="M248.94 94.4301H235.44V103.57H251.28V109.22H228.4V75.1001H251.23V80.8001H235.43V88.9301H248.93V94.4401L248.94 94.4301Z"
     fill="black"
     id="path12" />
  <path
     d="M262.44 103.57H277.37V109.22H255.41V75.1001H262.44V103.58V103.57Z"
     fill="black"
     id="path14" />
  <path
     d="M288.43 97.1901V109.21H281.4V75.0901H294.71C297.27 75.0901 299.53 75.5601 301.47 76.5001C303.41 77.4401 304.91 78.7701 305.96 80.5001C307.01 82.2301 307.53 84.1901 307.53 86.3901C307.53 89.7301 306.39 92.3701 304.1 94.3001C301.81 96.2301 298.64 97.1901 294.6 97.1901H288.44H288.43ZM288.43 91.4901H294.71C296.57 91.4901 297.99 91.0501 298.96 90.1801C299.93 89.3101 300.42 88.0601 300.42 86.4301C300.42 84.8001 299.93 83.4101 298.94 82.3801C297.95 81.3501 296.6 80.8201 294.86 80.7901H288.41V91.5001L288.43 91.4901Z"
     fill="black"
     id="path16" />
  <path
     d="M315.99 102.44C317.13 102.44 318.05 102.78 318.74 103.45C319.43 104.12 319.78 104.98 319.78 106.03C319.78 107.08 319.43 107.91 318.74 108.58C318.05 109.25 317.13 109.59 315.99 109.59C314.85 109.59 313.95 109.25 313.26 108.58C312.57 107.91 312.22 107.06 312.22 106.03C312.22 105 312.57 104.14 313.26 103.46C313.95 102.78 314.87 102.44 315.99 102.44ZM318.8 98.7401H313.18L312.38 75.0901H319.6L318.8 98.7401Z"
     fill="black"
     id="path18" />
  <path
     d="M363.94 99.3701L368.53 75.0901H375.54L367.97 109.21H360.89L355.34 86.3801L349.79 109.21H342.71L335.14 75.0901H342.15L346.77 99.3201L352.39 75.0901H358.34L363.94 99.3701Z"
     fill="black"
     id="path20" />
  <path
     d="M407.12 109.22H400.09V94.6001H386.38V109.22H379.35V75.1001H386.38V88.9301H400.09V75.1001H407.12V109.22Z"
     fill="black"
     id="path22" />
  <path
     d="M433.79 94.4301H420.29V103.57H436.13V109.22H413.25V75.1001H436.08V80.8001H420.28V88.9301H433.78V94.4401L433.79 94.4301Z"
     fill="black"
     id="path24" />
  <path
     d="M452.89 96.7201H447.29V109.21H440.26V75.0901H452.94C456.97 75.0901 460.08 75.9901 462.27 77.7901C464.46 79.5901 465.55 82.1301 465.55 85.4101C465.55 87.7401 465.05 89.6801 464.04 91.2301C463.03 92.7801 461.5 94.0201 459.46 94.9401L466.84 108.89V109.22H459.29L452.89 96.7301V96.7201ZM447.29 91.0201H452.96C454.73 91.0201 456.09 90.5701 457.06 89.6701C458.03 88.7701 458.51 87.5301 458.51 85.9601C458.51 84.3901 458.05 83.0801 457.14 82.1601C456.23 81.2401 454.82 80.7801 452.93 80.7801H447.28V91.0201H447.29Z"
     fill="black"
     id="path26" />
  <path
     d="M491.42 94.4301H477.92V103.57H493.76V109.22H470.88V75.1001H493.71V80.8001H477.91V88.9301H491.41V94.4401L491.42 94.4301Z"
     fill="black"
     id="path28" />
  <path
     d="M194.49 166.82V132.7H204.99C207.99 132.7 210.67 133.38 213.04 134.73C215.41 136.08 217.25 138 218.58 140.5C219.91 143 220.57 145.82 220.57 149V150.57C220.57 153.74 219.92 156.56 218.61 159.03C217.3 161.5 215.47 163.41 213.09 164.77C210.71 166.13 208.04 166.82 205.05 166.83H194.48L194.49 166.82ZM201.52 138.39V161.17H204.92C207.67 161.17 209.77 160.27 211.22 158.47C212.67 156.67 213.42 154.1 213.45 150.76V148.96C213.45 145.49 212.73 142.86 211.29 141.07C209.85 139.28 207.75 138.39 204.99 138.39H201.52Z"
     fill="black"
     id="path30" />
  <path
     d="M253.72 150.53C253.72 153.89 253.13 156.83 251.94 159.37C250.75 161.91 249.05 163.85 246.84 165.23C244.63 166.61 242.09 167.29 239.23 167.29C236.37 167.29 233.88 166.61 231.66 165.25C229.44 163.89 227.72 161.95 226.5 159.43C225.28 156.91 224.66 154 224.65 150.72V149.03C224.65 145.67 225.26 142.71 226.47 140.16C227.68 137.61 229.39 135.64 231.6 134.28C233.81 132.92 236.34 132.23 239.18 132.23C242.02 132.23 244.55 132.91 246.76 134.28C248.97 135.65 250.68 137.61 251.89 140.16C253.1 142.71 253.71 145.66 253.71 149.01V150.53H253.72ZM246.6 148.98C246.6 145.4 245.96 142.68 244.68 140.82C243.4 138.96 241.57 138.03 239.2 138.03C236.83 138.03 235.02 138.95 233.74 140.78C232.46 142.61 231.81 145.31 231.79 148.85V150.51C231.79 153.99 232.43 156.7 233.71 158.62C234.99 160.54 236.83 161.5 239.24 161.5C241.65 161.5 243.41 160.57 244.68 158.72C245.95 156.87 246.59 154.17 246.6 150.62V148.96V148.98Z"
     fill="black"
     id="path32" />
  <path
     d="M278.26 166.82H271.23V132.7H278.26V166.82Z"
     fill="black"
     id="path34" />
  <path
     d="M303.76 154.79V166.81H296.73V132.69H310.04C312.6 132.69 314.86 133.16 316.8 134.1C318.74 135.04 320.24 136.37 321.29 138.1C322.34 139.83 322.86 141.79 322.86 143.99C322.86 147.33 321.72 149.97 319.43 151.9C317.14 153.83 313.97 154.79 309.93 154.79H303.77H303.76ZM303.76 149.09H310.04C311.9 149.09 313.32 148.65 314.29 147.78C315.26 146.91 315.75 145.66 315.75 144.03C315.75 142.4 315.26 141.01 314.27 139.98C313.28 138.95 311.93 138.42 310.19 138.39H303.74V149.1L303.76 149.09Z"
     fill="black"
     id="path36" />
  <path
     d="M353.51 132.69V155.17C353.51 158.9 352.34 161.86 350.01 164.03C347.68 166.2 344.48 167.29 340.44 167.29C336.4 167.29 333.29 166.24 330.95 164.13C328.61 162.02 327.41 159.12 327.36 155.43V132.7H334.39V155.22C334.39 157.45 334.93 159.08 336 160.11C337.07 161.14 338.55 161.65 340.44 161.65C344.39 161.65 346.4 159.57 346.46 155.42V132.71H353.51V132.69Z"
     fill="black"
     id="path38" />
  <path
     d="M384.97 138.39H374.52V166.82H367.49V138.39H357.18V132.69H384.98V138.39H384.97Z"
     fill="black"
     id="path40" />
  <path
     d="M418.79 159.79H406.46L404.12 166.82H396.64L409.34 132.7H415.86L428.63 166.82H421.15L418.78 159.79H418.79ZM408.36 154.09H416.89L412.6 141.32L408.36 154.09Z"
     fill="black"
     id="path42" />
  <path
     d="M438.85 161.17H453.78V166.82H431.82V132.7H438.85V161.18V161.17Z"
     fill="black"
     id="path44" />
  <path
     d="M464.84 161.17H479.77V166.82H457.81V132.7H464.84V161.18V161.17Z"
     fill="black"
     id="path46" />
  <path
     d="M220.18 195.99H209.73V224.42H202.7V195.99H192.39V190.29H220.19V195.99H220.18Z"
     fill="black"
     id="path48" />
  <path
     d="M251.96 224.42H244.93V209.8H231.22V224.42H224.19V190.3H231.22V204.13H244.93V190.3H251.96V224.42Z"
     fill="black"
     id="path50" />
  <path
     d="M265.58 224.42H258.55V190.3H265.58V224.42Z"
     fill="black"
     id="path52" />
  <path
     d="M289.79 215.46C289.79 214.13 289.32 213.11 288.38 212.4C287.44 211.69 285.76 210.94 283.32 210.15C280.88 209.36 278.95 208.58 277.53 207.82C273.65 205.73 271.72 202.91 271.72 199.36C271.72 197.52 272.24 195.87 273.28 194.43C274.32 192.99 275.81 191.86 277.76 191.04C279.71 190.22 281.89 189.82 284.31 189.82C286.73 189.82 288.92 190.26 290.83 191.14C292.74 192.02 294.22 193.27 295.27 194.88C296.32 196.49 296.85 198.32 296.85 200.36H289.82C289.82 198.8 289.33 197.58 288.34 196.72C287.35 195.86 285.97 195.42 284.19 195.42C282.41 195.42 281.14 195.78 280.18 196.51C279.22 197.24 278.75 198.19 278.75 199.38C278.75 200.49 279.31 201.42 280.43 202.17C281.55 202.92 283.19 203.62 285.36 204.28C289.36 205.48 292.27 206.98 294.1 208.76C295.93 210.54 296.84 212.76 296.84 215.42C296.84 218.37 295.72 220.69 293.49 222.37C291.26 224.05 288.25 224.89 284.47 224.89C281.85 224.89 279.45 224.41 277.3 223.45C275.15 222.49 273.5 221.17 272.37 219.5C271.24 217.83 270.67 215.89 270.67 213.69H277.72C277.72 217.46 279.97 219.34 284.47 219.34C286.14 219.34 287.45 219 288.38 218.32C289.31 217.64 289.79 216.69 289.79 215.47V215.46Z"
     fill="black"
     id="path54" />
  <path
     d="M340.34 213.05C340.07 216.72 338.72 219.61 336.27 221.72C333.82 223.83 330.6 224.88 326.6 224.88C322.22 224.88 318.78 223.41 316.28 220.46C313.78 217.51 312.52 213.47 312.52 208.33V206.24C312.52 202.96 313.1 200.07 314.25 197.57C315.4 195.07 317.06 193.15 319.21 191.82C321.36 190.49 323.85 189.82 326.7 189.82C330.64 189.82 333.81 190.87 336.22 192.98C338.63 195.09 340.02 198.05 340.39 201.86H333.36C333.19 199.66 332.57 198.06 331.52 197.07C330.47 196.08 328.86 195.58 326.7 195.58C324.36 195.58 322.6 196.42 321.44 198.1C320.28 199.78 319.68 202.39 319.65 205.92V208.5C319.65 212.19 320.21 214.88 321.33 216.59C322.45 218.3 324.21 219.14 326.62 219.14C328.79 219.14 330.41 218.64 331.48 217.65C332.55 216.66 333.16 215.12 333.32 213.04H340.35L340.34 213.05Z"
     fill="black"
     id="path56" />
  <path
     d="M372.99 208.13C372.99 211.49 372.4 214.43 371.21 216.97C370.02 219.51 368.32 221.45 366.11 222.83C363.9 224.21 361.36 224.89 358.5 224.89C355.64 224.89 353.15 224.21 350.93 222.85C348.71 221.49 346.99 219.55 345.77 217.03C344.55 214.51 343.93 211.6 343.92 208.32V206.63C343.92 203.27 344.53 200.31 345.74 197.76C346.95 195.21 348.66 193.24 350.87 191.88C353.08 190.52 355.61 189.83 358.45 189.83C361.29 189.83 363.82 190.51 366.03 191.88C368.24 193.25 369.95 195.21 371.16 197.76C372.37 200.31 372.98 203.26 372.98 206.61V208.13H372.99ZM365.87 206.58C365.87 203 365.23 200.28 363.95 198.42C362.67 196.56 360.84 195.63 358.47 195.63C356.1 195.63 354.29 196.55 353.01 198.38C351.73 200.21 351.08 202.91 351.06 206.45V208.11C351.06 211.59 351.7 214.3 352.98 216.22C354.26 218.14 356.1 219.1 358.51 219.1C360.92 219.1 362.68 218.17 363.95 216.32C365.22 214.47 365.86 211.77 365.87 208.22V206.56V206.58Z"
     fill="black"
     id="path58" />
  <path
     d="M378.1 224.42V190.3H388.6C391.6 190.3 394.28 190.98 396.65 192.33C399.02 193.68 400.86 195.6 402.19 198.1C403.52 200.6 404.18 203.42 404.18 206.6V208.17C404.18 211.34 403.53 214.16 402.22 216.63C400.91 219.1 399.08 221.01 396.7 222.37C394.32 223.73 391.65 224.42 388.66 224.43H378.09L378.1 224.42ZM385.13 195.99V218.77H388.53C391.28 218.77 393.38 217.87 394.83 216.07C396.28 214.27 397.03 211.7 397.06 208.36V206.56C397.06 203.09 396.34 200.46 394.9 198.67C393.46 196.88 391.36 195.99 388.6 195.99H385.13Z"
     fill="black"
     id="path60" />
  <path
     d="M429.83 209.63H416.33V218.77H432.17V224.42H409.29V190.3H432.12V196H416.32V204.13H429.82V209.64L429.83 209.63Z"
     fill="black"
     id="path62" />
  <path
     d="M441.38 213.96C441.38 211.77 441.65 210.03 442.18 208.73C442.71 207.43 443.68 206.15 445.1 204.89C446.52 203.63 447.46 202.61 447.92 201.82C448.39 201.03 448.62 200.2 448.62 199.32C448.62 196.67 447.4 195.35 444.96 195.35C443.8 195.35 442.88 195.71 442.18 196.42C441.48 197.13 441.12 198.12 441.09 199.37H434.29C434.32 196.38 435.29 194.04 437.18 192.36C439.07 190.68 441.67 189.83 444.95 189.83C448.23 189.83 450.83 190.63 452.66 192.23C454.49 193.83 455.4 196.1 455.4 199.02C455.4 200.35 455.1 201.6 454.51 202.79C453.92 203.98 452.88 205.28 451.39 206.72L449.49 208.53C448.3 209.67 447.62 211.01 447.45 212.54L447.36 213.97H441.36L441.38 213.96ZM440.7 221.14C440.7 220.1 441.06 219.24 441.77 218.56C442.48 217.88 443.39 217.54 444.5 217.54C445.61 217.54 446.52 217.88 447.23 218.56C447.94 219.24 448.3 220.1 448.3 221.14C448.3 222.18 447.95 223.02 447.26 223.69C446.57 224.36 445.65 224.69 444.51 224.69C443.37 224.69 442.45 224.36 441.76 223.69C441.07 223.02 440.72 222.17 440.72 221.14H440.7Z"
     fill="black"
     id="path64" />
  <path
     fill-rule="evenodd"
     clip-rule="evenodd"
     d="M400.86 451.58C400.86 451.58 399.1 451.58 394.1 451.61C389.04 451.61 380.61 451.58 366.81 451.45C367.22 450.92 368.96 449.22 371.77 446.62C374.57 444.02 378.45 440.52 382.99 436.48C386.73 433.2 390.88 429.55 395.09 425.85C397.74 423.56 400.46 421.29 403.05 419.22C404.01 418.46 404.98 417.68 405.96 416.91C406.13 416.77 406.11 416.8 406.12 416.8H406.15H406.22C406.27 416.8 406.33 416.78 406.4 416.76C406.66 416.69 407.03 416.54 407.51 416.31C408.47 415.84 409.93 414.99 411.72 413.88C411.34 413.66 410.4 413.5 408.85 413.42C408.08 413.38 407.15 413.36 406.07 413.36H405.66H405.45C405.39 413.36 405.17 413.38 405.04 413.39L403.21 413.54C401.99 413.64 400.78 413.74 399.57 413.84C389.91 414.6 380.69 415.33 372.29 416C355.49 417.32 341.98 418.39 334.82 419.27C327.97 418.19 332.99 415.92 338.27 413.61C339.56 413.04 350.65 411.11 367.06 408.49C375.27 407.21 384.79 405.72 395.08 404.12C402.51 403.01 410.22 401.85 418.1 400.67C429.02 399.06 440.19 397.41 451.45 395.75C437.68 407.64 423.57 419.83 409.81 431.72C407.87 433.39 405.93 435.05 404.02 436.7C403.11 437.48 402.21 438.25 401.32 439.02H401.3C401.3 439.02 401.18 439.07 401.05 439.15C401.05 439.19 401.12 439.23 401.3 439.29C406.22 439.46 410.74 439.62 414.75 439.76C423.42 440.09 429.93 440.41 433.49 440.71C460.34 443 461.76 444.98 451.69 446.76C446.66 447.65 438.75 448.49 429.71 449.29C425.19 449.66 420.39 450.06 415.53 450.46C410.63 450.84 405.67 451.22 400.86 451.58Z"
     fill="black"
     id="path66" />
  <path
     fill-rule="evenodd"
     clip-rule="evenodd"
     d="M332.64 533.83C332.64 533.83 331.73 533.23 329.15 531.52C326.49 529.72 322.09 526.74 315.18 522.06C315.94 521.79 321.17 520.95 328.64 519.92C331.69 519.52 335.08 519.07 338.52 518.61C340.67 518.35 342.85 518.11 344.89 517.94C345.65 517.88 346.41 517.82 347.18 517.75C347.31 517.74 347.29 517.75 347.3 517.75H347.32L347.36 517.78L347.46 517.82C347.62 517.87 347.86 517.92 348.19 517.97C348.85 518.06 349.89 518.12 351.19 518.17C351.07 517.92 350.64 517.52 349.87 516.95C349.49 516.66 349.02 516.34 348.46 515.97L348.25 515.83L348.14 515.76L347.92 515.63L346.93 515.08C346.27 514.71 345.61 514.35 344.96 513.98C339.73 511.05 334.74 508.26 330.2 505.71C321.11 500.61 313.8 496.52 309.81 494.52C306.66 491.61 310.02 492.17 313.53 492.79C314.39 492.94 320.76 495.76 330.09 500.05C334.75 502.21 340.16 504.72 346 507.43C356.06 512.19 366.86 517.3 377.85 522.5C366.68 523.88 355.25 525.3 344.08 526.68C342.51 526.87 340.94 527.06 339.39 527.25C338.66 527.34 337.93 527.43 337.2 527.51H337.19C337.19 527.51 337.11 527.49 337.02 527.48C337.01 527.5 337.02 527.55 337.1 527.64C339.57 529.42 341.84 531.05 343.85 532.51C348.2 535.66 351.43 538.06 353.16 539.44C379.17 560.23 353.4 545.51 332.64 533.82V533.83Z"
     fill="black"
     id="path68" />
  <path
     d="M337.99 375.3V262.16H451.12"
     fill="#AEAAF7"
     id="path70" />
  <path
     d="M253.82 558.84C253.82 558.84 229.36 564.29 235.39 594.93C241.42 625.57 256.5 662.33 256.5 662.33L330.54 632.37C330.54 632.37 299.38 539.77 253.81 558.84H253.82Z"
     fill="black"
     id="path72" />
  <path
     fill-rule="evenodd"
     clip-rule="evenodd"
     d="M245.32 623.95C245.32 623.95 246.13 626.33 247.49 630.32C248.86 634.3 250.85 639.85 253.24 646.18C254.43 649.34 255.73 652.7 257.1 656.14C257.42 656.94 257.74 657.74 258.07 658.55C258.09 658.57 258.1 658.58 258.11 658.59C258.14 658.57 258.12 658.57 258.17 658.54L260.84 657.45C267.96 654.53 275.13 651.64 281.58 649.12C295.06 643.86 309.98 638.11 325.15 632.31L326.57 631.77L327.21 631.53L327.43 631.46L327.89 631.3L328.01 631.26C328.01 631.26 328 631.19 327.99 631.15L327.93 630.92L327.79 630.45L327.34 629.15L326.31 626.31C324.91 622.53 323.4 618.78 321.82 615.09C318.65 607.72 315.17 600.57 311.35 593.91C307.55 587.24 303.4 581.05 298.94 575.64C294.47 570.25 289.66 565.63 284.6 562.31C279.57 558.97 274.3 557.01 269.56 556.41C267.19 556.1 264.97 556.09 262.98 556.3C261.98 556.36 261.04 556.57 260.15 556.69C259.28 556.89 258.44 557.06 257.68 557.28C255.47 557.7 254.25 558.04 253.73 558.02C253.21 558.02 253.41 557.75 254.13 557.29C255.52 556.32 259.1 554.78 263.1 554.1C263.59 554.01 265.03 553.81 267.31 553.85C269.58 553.88 272.71 554.22 276.35 555.33C279.99 556.44 284.07 558.39 288.19 561.23C292.3 564.08 296.44 567.8 300.43 572.22C308.41 581.08 315.79 592.67 322.32 605.73C325.59 612.27 328.65 619.17 331.44 626.38C331.83 627.41 332.21 628.44 332.6 629.47C332.92 630.37 333.24 631.26 333.54 632.15L334 633.49L334.11 633.83L334.17 634C334.17 634 334.07 634.05 334.02 634.07L333.37 634.35C332.5 634.72 331.64 635.09 330.74 635.45L328.56 636.34L325.87 637.43C322.28 638.89 318.66 640.35 315.04 641.82C300.53 647.69 285.83 653.64 271.69 659.36C268.15 660.79 264.66 662.2 261.2 663.59C259.77 664.17 258.34 664.74 256.92 665.31L255.65 665.82L255.01 666.07C254.87 666.18 254.88 665.97 254.82 665.89L254.69 665.57L253.66 663.04C253.17 661.79 252.67 660.54 252.18 659.3C251.85 658.45 251.52 657.59 251.2 656.75C248.62 649.97 246.27 643.38 244.16 637.08C242.05 630.78 240.19 624.78 238.56 619.18C236.99 613.56 235.58 608.38 234.54 603.67C233.97 601.33 233.54 599.1 233.12 597.03C233.01 596.51 232.91 596 232.81 595.5C232.72 594.98 232.64 594.47 232.56 593.97C232.48 593.47 232.4 592.98 232.32 592.5C232.27 592.01 232.22 591.54 232.17 591.08C231.77 587.37 231.88 584.28 232.12 582.04C232.69 577.21 234.16 573.02 236.16 569.78C237.13 568.15 238.23 566.75 239.34 565.56C240.44 564.36 241.56 563.37 242.64 562.55C244.79 560.88 246.77 559.87 248.36 559.17C249.96 558.48 251.21 558.13 252.08 557.94C252.95 557.76 253.44 557.74 253.59 557.81C253.72 557.89 253.43 558.05 252.89 558.32C251.81 558.86 249.54 559.85 246.76 561.81C244 563.75 240.74 566.8 238.48 571.2C236.17 575.56 235.15 581.19 235.58 587.08C235.77 590.04 236.34 593.02 237.09 596.08C237.47 597.62 237.85 599.17 238.24 600.73C238.66 602.28 239.09 603.84 239.51 605.41C241.28 611.66 243.27 617.93 245.33 623.97L245.32 623.95Z"
     fill="black"
     id="path74" />
  <path
     d="M114.11 554.17L149.67 542.52V499.11H193.52V542.52L232.88 551.15C232.88 551.42 232.88 550.88 232.88 551.15C232.88 583.57 206.62 602.01 174.2 602.01C141.78 602.01 114.11 586.59 114.11 554.17C114.11 554.44 114.11 553.9 114.11 554.17Z"
     fill="#CB9B7C"
     id="path76" />
  <path
     d="M122.56 549.88C115.24 552.62 111.22 553.55 116.55 555.45C116.55 555.45 116.6 555.44 120.89 554.13C125.18 552.8 133.67 550.29 150.41 544.81L152.08 542.51C148.75 547.1 151.16 543.78 150.41 544.81H150.4H150.38H150.34L150.26 544.85L150.1 544.9C150 544.93 149.89 544.97 149.79 545C149.59 545.06 149.41 545.12 149.26 545.17C148.95 545.27 148.76 545.33 148.76 545.33C148.76 545.33 148.97 545.26 149.46 545.1C149.58 545.06 149.73 545.01 149.89 544.96C149.97 544.93 150.06 544.91 150.15 544.88L150.29 544.83L150.36 544.81H150.4V544.79C151.14 543.76 148.74 547.08 152.07 542.49V542.46C152.07 542.02 152.07 541.48 152.07 540.84C152.07 535.73 152.07 523.92 152.07 499.08L149.66 501.49C154.48 496.67 151 500.16 152.07 499.08V499.17V499.27V499.46V499.84C152.07 500.09 152.07 500.34 152.07 500.58C152.07 501.06 152.07 501.52 152.07 501.94C152.07 502.78 152.07 503.45 152.07 503.84C152.07 504.63 152.07 504.29 152.07 501.89C152.07 501.29 152.07 500.56 152.07 499.69C152.07 499.58 152.07 499.47 152.07 499.36V499.19V499.1V499.08C154.22 496.92 149.14 501.99 149.67 501.47H149.71C149.95 501.47 150.19 501.47 150.45 501.47C150.96 501.47 151.51 501.47 152.09 501.47C154.44 501.47 157.42 501.47 161.15 501.47C168.62 501.47 179.09 501.47 193.51 501.47L191.12 499.08C195.9 503.86 192.44 500.41 193.51 501.47H193.44H193.37H193.22H192.92H192.33C191.94 501.47 191.56 501.47 191.19 501.47C190.45 501.47 189.74 501.47 189.08 501.47C187.77 501.47 186.66 501.47 185.89 501.47C184.35 501.47 184.17 501.47 186.39 501.47C187.5 501.47 189.21 501.47 191.65 501.47C191.96 501.47 192.27 501.47 192.6 501.47C192.76 501.47 192.93 501.47 193.1 501.47H193.36H193.49C192.44 500.41 195.87 503.84 191.13 499.1V499.22C191.13 499.92 191.13 500.68 191.13 501.48C191.13 503.08 191.13 504.89 191.13 506.9C191.13 514.97 191.13 526.49 191.14 542.51L192.99 544.81C189.29 540.2 191.96 543.53 191.14 542.49V542.41V542.32V542.13V541.76C191.14 541.51 191.14 541.27 191.14 541.03C191.14 540.54 191.14 540.07 191.14 539.6C191.14 538.67 191.14 537.78 191.14 536.95C191.14 535.29 191.14 533.87 191.14 532.82C191.14 530.72 191.14 530.11 191.15 532.05C191.15 533.02 191.15 534.63 191.15 537.01C191.15 538.2 191.15 539.58 191.15 541.17C191.15 541.57 191.15 541.98 191.15 542.4V542.48V542.5C194.8 547.04 192.17 543.76 192.99 544.77H193.03L193.19 544.81L193.51 544.88C193.72 544.93 193.94 544.97 194.16 545.02C195.04 545.21 195.98 545.42 196.97 545.63C204.89 547.36 216.33 549.87 232.35 553.37L230.54 551.15C234.14 555.58 231.5 552.37 232.29 553.36H232.23L232.11 553.32L231.88 553.27L231.42 553.17C231.12 553.1 230.81 553.04 230.51 552.97C229.91 552.84 229.32 552.71 228.74 552.58C227.58 552.32 226.47 552.08 225.39 551.84C223.24 551.36 221.24 550.92 219.41 550.52C215.74 549.71 212.7 549.03 210.27 548.49C205.4 547.41 202.95 546.86 202.72 546.79C202.25 546.65 210.64 548.45 226.25 551.83C227.23 552.04 228.23 552.26 229.26 552.48C229.78 552.59 230.3 552.7 230.83 552.82C231.09 552.88 231.36 552.93 231.63 552.99L232.03 553.08L232.23 553.12L232.33 553.14H232.38C229.11 549.15 231.48 552.07 230.75 551.2C230.72 552.16 230.7 553.15 230.67 554.17C230.57 555.29 230.54 556.44 230.37 557.6C230.13 559.94 229.62 562.34 228.99 564.81C228.3 567.26 227.39 569.75 226.22 572.22C223.86 577.16 220.32 581.98 215.62 586.11C210.93 590.25 205.08 593.67 198.45 596.04C191.82 598.42 184.43 599.78 176.67 600.03C168.9 600.25 160.71 599.59 152.59 597.53C148.53 596.5 144.5 595.11 140.63 593.23C138.68 592.32 136.81 591.22 134.96 590.08C133.15 588.87 131.36 587.6 129.72 586.14C128.07 584.69 126.49 583.13 125.08 581.4C123.64 579.7 122.37 577.85 121.25 575.89C120.09 573.95 119.2 571.85 118.39 569.71C117.63 567.55 117.02 565.31 116.6 563.02C115.54 558.16 115.54 555.24 115.29 554.25C115.28 554.18 115.26 554.13 115.25 554.08V554.05V554.03C115.76 553.92 110.77 554.11 112.88 554.04V554.08L112.89 554.12C112.89 554.14 112.9 554.16 112.91 554.18V554.21L112.92 554.23V554.25C112.44 554.45 117.22 554.22 115.2 554.29C115.2 554.24 115.2 554.24 115.2 554.23C115.2 554.25 115.2 554.17 115.2 554.26C115.17 554.57 115.02 554.73 114.98 554.77C114.93 554.81 114.95 554.78 115.02 554.65C115.05 554.58 115.09 554.48 115.11 554.35C115.13 554.16 115.11 554.22 115.11 554.23C115.11 554.23 115.11 554.25 115.11 554.26C114.21 554.29 117.12 554.24 113.09 554.34C113.08 554.14 113.09 554.28 113.09 554.24C113.09 554.24 113.09 554.21 113.09 554.2C113.09 554.18 113.1 554.16 113.11 554.14C113.11 554.12 113.12 554.1 113.13 554.06C111.4 554.04 115.49 554.02 115.07 554.04V554.08V554.1V554.14C114.98 554.56 114.92 555.42 114.86 556.7C114.86 557.98 114.85 559.68 115.09 561.75C115.29 563.82 115.71 566.26 116.49 568.98C117.27 571.7 118.43 574.7 120.18 577.75C121.93 580.81 124.28 583.91 127.26 586.81C130.22 589.74 133.87 592.36 138 594.65C142.15 596.89 146.8 598.78 151.83 600.15C156.85 601.55 162.24 602.44 167.85 602.89C173.45 603.3 179.32 603.32 185.3 602.56C191.27 601.83 197.35 600.35 203.23 597.92C209.11 595.51 214.76 592.05 219.63 587.51C224.5 582.98 228.5 577.31 231.1 570.97C232.4 567.8 233.35 564.48 233.97 561.09C234.15 560.25 234.26 559.39 234.38 558.54L234.56 557.26L234.67 555.97C234.74 555.11 234.84 554.25 234.84 553.39L234.91 551.09L234.96 549.51L233.32 549.14C220.25 546.19 207.06 543.22 194.01 540.28L195.78 542.49C195.83 527.73 195.88 513.14 195.92 499.08V496.68H193.52C178.11 496.68 163.34 496.68 149.67 496.68H147.27V499.07C147.31 515.37 147.4 530.1 147.53 542.48L149 540.46C137.97 544.21 128.95 547.46 122.55 549.84L122.56 549.88Z"
     fill="black"
     id="path78" />
  <path
     d="M95.57 465.22C95.57 465.22 148.61 547.71 217.96 526.09C280.22 506.69 285.23 455.79 272.44 427.01C259.65 398.23 248.11 392.97 237.01 350.74C225.91 308.52 198.41 303.87 188.12 300.08C177.83 296.29 91.09 293.91 59.73 372.01C28.37 450.11 95.56 465.22 95.56 465.22H95.57Z"
     fill="#CB9B7C"
     id="path80" />
  <path
     d="M94.5098 465.9C94.5098 465.9 94.9898 466.57 95.9598 467.91C96.9398 469.23 98.4198 471.18 100.49 473.73C104.63 478.81 111.05 486.35 120.78 495.3C125.65 499.75 131.38 504.54 138.18 509.26C139.85 510.49 141.68 511.57 143.49 512.77C145.33 513.92 147.26 515.03 149.23 516.17C150.24 516.7 151.25 517.24 152.28 517.78C152.79 518.05 153.31 518.33 153.83 518.6C154.36 518.85 154.9 519.1 155.44 519.36C156.52 519.86 157.61 520.37 158.71 520.89C159.82 521.38 160.97 521.81 162.12 522.29C171.31 526.02 181.96 528.54 193.53 528.62C199.32 528.63 205.28 527.87 211.33 526.55C217.31 525 223.44 522.91 229.52 520.23C235.59 517.55 241.62 514.23 247.28 510.07C248.68 509.01 250.12 507.98 251.45 506.8C252.13 506.22 252.81 505.65 253.49 505.07C254.14 504.45 254.79 503.83 255.44 503.21C256.79 502 257.95 500.61 259.22 499.3C259.83 498.62 260.39 497.9 260.99 497.2C261.58 496.5 262.17 495.79 262.7 495.03C267.16 489.13 270.75 482.31 273.04 474.83C275.38 467.38 276.31 459.28 275.86 451.06C275.39 442.83 273.47 434.48 269.76 426.64C268.82 424.64 267.9 422.62 266.86 420.65C265.87 418.65 264.79 416.68 263.7 414.7C261.49 410.75 259.11 406.82 256.65 402.81C254.19 398.8 251.72 394.68 249.4 390.39C247.06 386.1 245 381.59 243.05 376.98C241.2 372.34 239.43 367.6 237.95 362.73C237.57 361.52 237.19 360.3 236.81 359.07C236.47 357.84 236.12 356.61 235.77 355.37C235.43 354.13 235.08 352.89 234.73 351.65C234.37 350.45 234.01 349.25 233.64 348.04C233.28 346.84 232.91 345.63 232.55 344.42C232.15 343.23 231.65 342.07 231.2 340.88C230.73 339.71 230.3 338.51 229.8 337.34C229.24 336.2 228.68 335.06 228.12 333.92L227.28 332.2C227.01 331.62 226.64 331.1 226.32 330.55C225.66 329.46 225 328.36 224.34 327.27C223.65 326.19 222.84 325.2 222.1 324.15L220.96 322.59L219.68 321.15L218.4 319.7C217.98 319.21 217.55 318.72 217.07 318.3C216.13 317.41 215.19 316.52 214.24 315.63C213.22 314.82 212.2 314.02 211.18 313.21C210.14 312.43 209.02 311.74 207.94 311C206.84 310.28 205.66 309.68 204.52 309.01C203.36 308.37 202.14 307.84 200.94 307.24C199.71 306.72 198.48 306.18 197.21 305.7C195.93 305.23 194.67 304.75 193.35 304.32C192.02 303.88 190.69 303.44 189.36 303L187.29 302.28L186.5 302.05C186.23 301.97 185.89 301.92 185.59 301.85C183.05 301.35 180.25 301.14 177.48 301.01C171.9 300.8 166.21 301.01 160.5 301.59C149.08 302.75 137.55 305.36 126.37 309.51C120.77 311.56 115.29 314.12 109.98 317.06C107.29 318.48 104.74 320.16 102.15 321.79C100.89 322.67 99.6398 323.55 98.3698 324.43C97.0898 325.29 95.9298 326.31 94.6998 327.25C89.8698 331.1 85.2498 335.36 81.1298 340.13L79.5498 341.9C79.0298 342.5 78.5598 343.14 78.0698 343.75C77.0898 345 76.1098 346.25 75.1298 347.5C73.3498 350.14 71.3998 352.69 69.8198 355.5C66.3598 360.94 63.6198 366.86 61.0198 372.89C60.4298 374.43 59.8498 375.97 59.2598 377.51C58.9698 378.28 58.6598 379.05 58.3898 379.83L57.6298 382.19C57.1398 383.77 56.5798 385.34 56.1498 386.95C55.7398 388.56 55.3198 390.17 54.9098 391.79C53.4398 398.3 52.5198 405 52.6398 411.77C52.7498 418.53 53.9598 425.33 56.4698 431.73C58.0998 435.7 60.0998 439.2 62.2498 442.26C64.4198 445.32 66.7998 447.86 69.0998 450.09C73.7998 454.47 78.3398 457.43 82.1498 459.52C85.9598 461.62 89.0498 462.93 91.2698 463.8C93.4898 464.67 94.8498 465.1 95.3398 465.31C96.3398 465.68 93.6998 465.44 88.2998 463.47C85.6098 462.47 82.2398 461.03 78.4298 458.86C74.6198 456.7 70.3798 453.74 66.2098 449.69C64.0998 447.69 62.1098 445.34 60.1698 442.74C59.2798 441.39 58.2598 440.07 57.4598 438.56C57.0398 437.82 56.6098 437.07 56.1798 436.32C55.8098 435.53 55.4298 434.74 55.0498 433.94C51.9998 427.5 50.3098 419.8 50.0398 411.59C49.7698 403.36 50.9698 394.6 53.3798 385.75C55.8198 376.9 59.2598 367.87 63.9398 358.94C68.6398 350.05 74.6398 341.3 82.2098 333.51C83.1598 332.54 84.1198 331.57 85.0798 330.6C86.0398 329.62 87.0998 328.75 88.1098 327.81C90.1198 325.91 92.3198 324.22 94.4998 322.47C98.9698 319.11 103.65 315.88 108.7 313.15C118.71 307.52 129.79 303.32 141.39 300.44C147.2 299.03 153.15 297.97 159.19 297.27C165.23 296.57 171.37 296.26 177.58 296.46C180.7 296.59 183.79 296.79 187.06 297.46C187.84 297.61 188.93 297.97 189.52 298.17C190.22 298.41 190.9 298.65 191.64 298.88C193.11 299.36 194.58 299.84 196.05 300.33C201.98 302.37 207.88 305.08 213.16 308.81C218.45 312.52 223.06 317.22 226.81 322.48C230.54 327.75 233.65 333.47 235.85 339.5C237.13 342.46 237.93 345.56 238.88 348.62C239.81 351.68 240.57 354.62 241.43 357.62C243.25 363.54 245.18 369.42 247.53 375.11C249.88 380.8 252.58 386.3 255.62 391.64C258.65 396.99 261.99 402.21 265.16 407.59C268.34 412.97 271.27 418.51 273.84 424.17C274.16 424.88 274.5 425.57 274.81 426.3L275.72 428.5C276.03 429.23 276.27 429.99 276.54 430.73C276.82 431.47 277.07 432.22 277.29 432.98C278.27 435.99 278.95 439.07 279.51 442.15C280.56 448.33 280.86 454.59 280.32 460.75C280.1 463.83 279.58 466.87 278.99 469.88C278.3 472.87 277.52 475.82 276.46 478.68C272.39 490.16 265.26 500.21 256.59 507.87C252.26 511.72 247.58 515.02 242.76 517.87C241.54 518.55 240.36 519.31 239.11 519.92C237.87 520.55 236.64 521.18 235.41 521.8C234.17 522.4 232.91 522.93 231.66 523.49L229.79 524.32L227.9 525.06C222.9 527.12 217.81 528.62 212.69 529.92C211.42 530.26 210.11 530.42 208.83 530.67C207.54 530.88 206.27 531.17 204.99 531.31C203.7 531.43 202.42 531.56 201.15 531.68L199.24 531.86C198.6 531.9 197.97 531.89 197.33 531.9C187.19 532.2 177.48 530.56 168.75 527.74C160.02 524.86 152.23 520.94 145.35 516.7C138.46 512.44 132.47 507.85 127.22 503.35C116.75 494.31 109.21 485.71 103.91 479.12C98.6298 472.49 95.5998 467.83 94.5198 465.91L94.5098 465.9Z"
     fill="black"
     id="path82" />
  <path
     d="M14.0002 330.72C17.5402 345.33 31.1802 354.21 31.1802 354.21L68.5002 280L73.1202 298.84C73.1202 298.84 104.04 285.46 120.64 268.48C137.24 251.5 147.08 233.8 147.08 233.8C158.53 255.71 155.23 277.82 155.23 277.82C189.86 244.69 216.88 248.6 216.88 248.6C193.52 269.46 187.77 292.79 187.77 292.79C215.42 274.39 235.89 274.41 235.89 274.41C221.55 285.66 212.33 299.98 212.33 299.98L261.67 291.22C253.67 310.05 231.34 322.72 231.34 322.72L256.92 334L238.5 332.96C211.68 334.57 174.81 357.06 142.66 371.57C110.51 386.08 96.8002 370.92 96.8002 370.92L117.46 391.82L91.4602 389.96L115.19 411.89L117.42 438.91L136.7 474.78L104.81 462.92L111.71 481.49L77.9602 472.92C77.9602 472.92 36.7402 447.44 24.4802 421.84C12.2202 396.24 26.5602 378.85 26.5602 378.85L2.41016 368.9L20.4302 366.05C20.4302 366.05 7.29016 353.3 12.9902 331.91"
     fill="#211B3F"
     id="path84" />
  <path
     d="M12.8 331.01C12.8 331.01 12.96 331.52 13.28 332.58C13.45 333.1 13.62 333.77 13.96 334.54C14.29 335.3 14.59 336.24 15.12 337.23C15.37 337.73 15.64 338.27 15.92 338.83C16.24 339.37 16.58 339.95 16.94 340.56C17.28 341.18 17.73 341.78 18.16 342.43C18.58 343.09 19.08 343.73 19.6 344.41C21.68 347.11 24.44 350.06 28.07 352.95C28.26 353.11 28.6 353.38 28.91 353.6C29.22 353.83 29.53 354.06 29.85 354.3C30.17 354.52 30.49 354.74 30.81 354.96C31.12 355.13 31.52 355.63 31.64 355.02C32.36 353.68 33.2 351.91 33.69 350.92C34.83 348.59 36.03 346.12 37.31 343.5C39.87 338.26 42.72 332.44 45.86 326.01C52.19 313.12 59.71 297.79 68.52 279.84C69.46 283.5 70.43 287.28 71.44 291.21C71.93 293.11 72.42 295.04 72.93 297C73.04 297.44 73.16 297.89 73.27 298.33C73.29 298.37 73.28 298.47 73.33 298.47L73.49 298.4L73.81 298.25L74.45 297.96C75.35 297.53 76.25 297.1 77.16 296.66C84.84 292.89 92.9 288.49 101.14 283.1C105.24 280.39 109.38 277.43 113.44 274.09C117.49 270.75 121.26 266.85 124.99 262.61C128.71 258.38 132.38 253.84 135.92 248.96C137.69 246.52 139.43 244 141.15 241.4C142 240.1 142.85 238.78 143.68 237.43L144.47 236.15L145.37 234.63C145.97 233.61 146.57 232.54 147.16 231.49C148.15 233.38 149.23 235.66 150.18 237.63C150.79 239.15 151.49 240.67 152.06 242.27C152.6 243.88 153.23 245.49 153.68 247.2C153.92 248.05 154.17 248.91 154.41 249.78C154.62 250.66 154.82 251.55 155.03 252.46C155.82 256.09 156.45 259.96 156.77 264.15C156.91 266.24 157.02 268.42 157.01 270.67C157.01 271.18 157.01 271.69 157 272.21C157 272.45 156.99 272.7 156.98 272.95C156.95 273.44 156.93 273.93 156.87 274.43V274.55C156.87 274.55 156.91 274.5 156.94 274.48L157.12 274.31L157.49 273.97L158.21 273.3L159.23 272.36C159.81 271.84 160.38 271.28 160.99 270.78C162.22 269.78 163.45 268.78 164.69 267.77C165.93 266.76 167.17 265.73 168.51 264.81C169.83 263.86 171.15 262.91 172.48 261.95C173.83 261.02 175.26 260.18 176.65 259.28C177.35 258.84 178.06 258.39 178.77 257.95C179.5 257.55 180.24 257.14 180.98 256.74C182.47 255.95 183.91 255.06 185.48 254.38C191.6 251.37 198.25 248.97 205.35 247.65C206.23 247.45 207.14 247.36 208.04 247.23L209.4 247.04L210.91 246.92C211.68 246.85 212.44 246.81 213.17 246.81L215.32 246.86C215.67 246.87 216.05 246.86 216.39 246.89L217.37 246.98L219.35 247.18L219.85 247.23L220.11 247.26H220.24C220.24 247.26 220.34 247.28 220.28 247.32L219.55 248.08L218.08 249.6C217.1 250.62 216.11 251.64 215.12 252.66C214.34 253.48 213.55 254.3 212.76 255.12C212.14 255.77 211.52 256.42 210.9 257.08C209.66 258.39 208.53 259.81 207.32 261.18C206.16 262.58 205.06 264.06 203.92 265.51C201.78 268.51 199.65 271.58 197.79 274.85C195.9 278.1 194.14 281.49 192.64 285.02C192.35 285.74 192.05 286.46 191.75 287.19L191.58 287.67C191.53 287.83 191.48 287.98 191.44 288.14C191.41 288.21 191.47 288.15 191.5 288.14L191.61 288.07L191.83 287.93L192.25 287.65L192.34 287.59L192.87 287.28L194.2 286.51C195.09 285.99 195.98 285.48 196.88 284.96C197.79 284.48 198.71 283.99 199.63 283.51C203.3 281.56 207.15 279.83 211.1 278.25C215.06 276.68 219.18 275.36 223.42 274.28C224.48 274 225.55 273.77 226.63 273.54L227.44 273.37L228.89 273.14L231.86 272.67L234.61 272.43L235.3 272.37L235.92 272.35L237.16 272.32L239.65 272.26L240.96 272.24L241.96 272.27C240.09 273.81 238.21 275.32 236.31 276.92L233.46 279.31C232.97 279.71 232.53 280.1 232.08 280.5L231.09 281.43C229.3 283.08 227.59 284.83 225.9 286.61C224.22 288.41 222.57 290.26 220.99 292.18C220.19 293.13 219.41 294.11 218.64 295.1L217.68 296.35L217.44 296.68L217.31 296.88C217.38 296.88 217.48 296.85 217.55 296.83L217.67 296.81L219.46 296.49C220.74 296.26 222.03 296.03 223.31 295.8C228.46 294.88 233.67 293.94 238.93 293C244.19 292.06 249.51 291.1 254.89 290.14C256.99 289.76 259.1 289.39 261.22 289.01C262.51 288.8 263.81 288.59 265.11 288.39L265.6 288.31C265.74 288.26 265.6 288.4 265.6 288.46L265.49 288.69L265.06 289.59L264.19 291.4L262.45 295.03C262.3 295.33 262.17 295.63 262.02 295.92L261.52 296.77L260.96 297.73C260.58 298.35 260.24 299 259.83 299.6L258.6 301.39C255.26 306.14 251.27 310.42 246.89 314.28C244.71 316.23 242.41 318.05 240.06 319.82C238.87 320.69 237.67 321.55 236.44 322.38L236.38 322.43C246.93 327.08 257.63 331.79 269.9 337.2C263.4 336.83 256.86 336.47 250.29 336.1C247.55 335.95 244.8 335.79 242.05 335.64L239.57 335.5L238.56 335.45L237.41 335.57C231.05 336.12 224.62 337.66 218.27 339.76C211.92 341.85 205.6 344.38 199.27 347.13C192.96 349.91 186.64 352.93 180.27 356.03C173.9 359.17 167.47 362.35 160.96 365.56C157.7 367.17 154.4 368.76 151.07 370.34C149.41 371.14 147.72 371.9 146.04 372.68L143.5 373.84L140.86 374.92C133.84 377.82 126.24 379.93 118.25 380.21C114.26 380.25 110.19 379.88 106.24 378.7C105.26 378.39 104.26 378.11 103.31 377.68L101.87 377.08L100.47 376.36C100 376.13 99.55 375.86 99.1 375.58C98.65 375.3 98.19 375.04 97.76 374.71C97.32 374.39 96.89 374.09 96.47 373.73C96.26 373.55 96.05 373.39 95.83 373.19C95.61 372.98 95.43 372.83 95.15 372.53L98.42 369.44C106.39 377.53 114.46 385.72 123.13 394.52C117.01 394.07 110.86 393.62 104.58 393.16C102.44 393 100.29 392.84 98.1 392.68C97.87 392.66 97.63 392.64 97.39 392.61L97.68 392.89L98.7 393.85C100.64 395.65 102.58 397.46 104.55 399.28C108.67 403.11 112.87 407 117.18 411.01C117.89 419.92 118.61 428.94 119.36 438.43C126.29 451.41 133.34 464.62 140.62 478.27C129.85 474.22 118.93 470.11 107.72 465.89L108.19 467.21C108.73 468.68 109.27 470.15 109.81 471.63C111.3 475.68 112.81 479.77 114.33 483.91C102.37 480.82 90.26 477.7 78 474.53C77.74 474.44 77.41 474.43 77.18 474.24L76.6 473.87L75.67 473.27L73.83 472.06C72.62 471.23 71.41 470.4 70.19 469.58C67.78 467.9 65.4 466.17 63.03 464.4C58.29 460.87 53.68 457.11 49.17 453.18C44.64 449.27 40.35 445.03 36.25 440.56L33.24 437.13C32.28 435.95 31.36 434.73 30.42 433.52C29.45 432.34 28.62 431.04 27.77 429.76C26.92 428.48 26.03 427.22 25.34 425.83C22.27 420.46 20.04 414.55 19.08 408.35C18.15 402.16 18.47 395.71 20.33 389.66C20.65 388.63 20.97 387.61 21.38 386.64C21.74 385.65 22.2 384.7 22.64 383.76C23.1 382.83 23.58 381.92 24.12 381.05L24.42 380.56C24.5 380.42 24.6 380.3 24.68 380.17C24.85 379.91 25.04 379.65 25.24 379.4L25.28 379.34L25.21 379.31L25.08 379.25L24.82 379.14L24.29 378.92C23.88 378.74 23.46 378.57 23.05 378.4C21.96 377.94 20.89 377.49 19.83 377.05C17.71 376.16 15.64 375.29 13.63 374.44C8.84 372.43 4.3 370.52 0 368.72C4.2 368.09 8.19 367.48 11.97 366.91C13.48 366.68 14.96 366.47 16.39 366.25C16.96 366.17 17.51 366.09 18.06 366.01C18.34 365.97 18.62 365.93 18.89 365.89L19.31 365.83C19.38 365.82 19.46 365.81 19.51 365.8L19.37 365.65C18.95 365.19 18.56 364.7 18.19 364.21C18 363.97 17.83 363.71 17.65 363.46C17.48 363.2 17.21 362.85 17.03 362.54C16.22 361.26 15.5 359.99 14.91 358.72C14.29 357.47 13.82 356.21 13.37 355C13.17 354.39 13 353.78 12.82 353.2C12.73 352.91 12.64 352.61 12.56 352.33C12.5 352.04 12.43 351.75 12.37 351.46C11.32 346.87 11.32 343.01 11.56 340.06C11.69 338.58 11.94 337.32 12.08 336.26C12.28 335.21 12.54 334.37 12.69 333.72C13.03 332.42 13.21 331.9 13.22 332.11C13.35 332.54 12.27 335.83 12.18 341.88C12.18 344.89 12.48 348.6 13.77 352.7C14.38 354.76 15.29 356.88 16.43 359.05C16.73 359.58 17.04 360.12 17.36 360.67C17.71 361.2 18.04 361.74 18.41 362.27C18.65 362.59 18.88 362.92 19.12 363.25C19.38 363.62 19.72 363.98 20.04 364.36C20.66 365.09 21.41 365.88 22.13 366.63C22.1 366.68 22.09 366.73 22.08 366.78L21.73 366.84L21.02 366.96C20.55 367.04 20.07 367.12 19.59 367.2C18.62 367.36 17.64 367.52 16.64 367.68C15.18 367.92 13.68 368.17 12.15 368.43C10.24 368.75 8.24 369.1 6.16 369.45C8.8 370.51 11.57 371.62 14.46 372.78C16.49 373.6 18.56 374.44 20.67 375.3C21.73 375.73 22.79 376.16 23.87 376.6C24.6 376.9 25.33 377.19 26.07 377.49L27.29 377.99L27.9 378.24L28.21 378.37L28.36 378.43L28.42 378.51C27.82 379.28 27.24 380.08 26.68 380.87C26.53 381.07 26.41 381.27 26.28 381.47L25.95 382.02C25.8 382.29 25.63 382.54 25.49 382.82C25.21 383.37 24.9 383.91 24.63 384.48C24.37 385.05 24.11 385.62 23.85 386.2C22.9 388.54 22.11 391.01 21.6 393.58C20.54 398.72 20.63 404.26 21.78 409.76C22.94 415.25 25.14 420.75 28.24 425.87C31.45 430.96 35.42 435.8 39.83 440.46C44.24 445.13 49.18 449.53 54.37 453.86C59.58 458.17 65.12 462.35 70.93 466.38C72.38 467.4 73.86 468.38 75.34 469.37C76.09 469.86 76.84 470.34 77.59 470.83L78.6 471.47C78.6 471.47 78.66 471.5 78.7 471.51L78.9 471.56L79.56 471.73C83.08 472.61 86.64 473.51 90.23 474.41C96.35 475.94 102.59 477.5 108.93 479.09C106.58 472.81 104.19 466.43 101.77 459.97C111.87 463.7 122.18 467.51 132.7 471.39C127.09 461.01 121.35 450.4 115.51 439.6C114.77 430.82 114.02 421.93 113.26 412.95C104.18 404.59 95 396.13 85.72 387.58C94.42 388.19 103.19 388.81 112.01 389.42C106.47 383.84 100.89 378.21 95.28 372.55L98.42 369.59L98.75 369.9C98.87 370.02 99.02 370.14 99.17 370.26C99.45 370.5 99.76 370.74 100.08 370.96C100.69 371.43 101.4 371.81 102.07 372.23C103.48 372.98 104.94 373.65 106.49 374.14C109.56 375.17 112.84 375.7 116.16 375.72C122.81 375.91 129.54 374.38 135.97 372.03L140.75 370.07C142.34 369.44 143.94 368.62 145.54 367.91C148.74 366.45 151.91 364.89 155.1 363.35C161.46 360.2 167.84 357.04 174.23 353.87C180.63 350.69 187.09 347.56 193.64 344.57C200.19 341.57 206.87 338.76 213.75 336.36C220.63 333.98 227.72 331.96 235.14 331.09L237.93 330.8L238.31 330.76C238.44 330.73 238.79 330.76 238.89 330.76L239.56 330.8L240.91 330.88L244.02 331.05H244.26L244.1 330.99L243.16 330.58C237.51 328.09 231.85 325.6 226.2 323.11L229.88 320.97C231.11 320.25 232.2 319.52 233.37 318.79L233.79 318.52L233.99 318.38L234.4 318.1L235.22 317.54L236.83 316.39C238.96 314.83 241.04 313.2 243.02 311.46C247 308.01 250.68 304.24 253.8 300.1C254.57 299.06 255.28 297.98 256.02 296.93L257.45 294.51C257.45 294.51 257.45 294.48 257.43 294.49C252.28 295.41 247.13 296.32 241.99 297.24C236.71 298.18 231.44 299.12 226.19 300.05C223.49 300.53 220.8 301.01 218.11 301.49C215.52 301.94 212.76 302.49 210.46 302.75L208.66 302.99L207.76 303.11L207.54 303.14C207.48 303.16 207.51 303.12 207.54 303.09L207.61 302.99L207.87 302.6L209.89 299.51C210.53 298.49 211.32 297.42 212.04 296.36L214.15 293.5C214.98 292.43 215.81 291.37 216.67 290.32C218.39 288.23 220.15 286.19 221.98 284.22C223.82 282.25 225.71 280.32 227.68 278.49L228.39 277.83C227.52 278.01 226.66 278.19 225.8 278.38C222.14 279.22 218.54 280.34 215 281.61C207.94 284.2 201.16 287.5 194.75 291.34L194.18 291.67L193.57 292.06L192.46 292.71L190.23 294L185.78 296.58L184.67 297.23C184.5 297.32 184.28 297.48 184.14 297.52L184.3 296.9L184.92 294.53C185.12 293.76 185.34 292.95 185.57 292.14C185.81 291.32 185.98 290.55 186.33 289.66L187.25 287.06C187.4 286.63 187.56 286.18 187.73 285.76L188.06 284.96C188.43 284.06 188.8 283.17 189.21 282.29C189.99 280.52 190.86 278.8 191.73 277.09C195.32 270.29 199.58 263.92 204.48 258.15C205.74 256.74 206.9 255.25 208.24 253.92L210.19 251.88L210.93 251.1H210.94C210.94 251.1 210.99 251.06 210.96 251.06H210.93L210.4 251.1C203.49 251.79 196.69 253.75 190.33 256.53C188.76 257.27 187.17 257.96 185.61 258.73C184.08 259.55 182.56 260.37 181.04 261.19C178.09 263 175.12 264.74 172.36 266.79L170.26 268.28L169.21 269.02L168.21 269.82C166.88 270.89 165.55 271.96 164.22 273.02C163.55 273.54 162.9 274.09 162.28 274.67L159.6 277.09C157.1 279.34 154.62 281.59 152.13 283.83C152.41 281.67 152.69 279.51 152.97 277.36C153.03 276.84 153.12 276.29 153.15 275.81L153.23 274.37L153.31 272.93L153.35 272.21C153.35 272.07 153.36 272.01 153.35 271.96V271.78C153.38 269.91 153.37 268.05 153.27 266.19C153.08 262.48 152.68 258.8 151.98 255.21C151.28 251.62 150.42 248.08 149.22 244.7C148.69 242.98 147.97 241.34 147.31 239.68L146.98 238.87L146.94 238.79C146.92 238.74 146.89 238.67 146.87 238.63L146.75 238.82L145.67 240.53L144.52 242.3C142.98 244.65 141.38 246.94 139.76 249.19C136.5 253.68 133.11 257.97 129.58 262.06C126.03 266.14 122.46 270.03 118.48 273.63C114.52 277.17 110.34 280.24 106.15 283.11C101.96 285.98 97.69 288.55 93.45 290.96C89.2 293.37 84.96 295.59 80.74 297.65C79.69 298.17 78.63 298.67 77.58 299.16C76.83 299.5 76.09 299.84 75.35 300.18C74.42 300.59 73.49 301.01 72.56 301.42L71.83 301.74L71.74 301.78C71.74 301.78 71.72 301.73 71.71 301.7L71.66 301.51L71.56 301.13L71.17 299.61C70.92 298.59 70.67 297.58 70.42 296.57C70.15 295.47 69.89 294.38 69.63 293.3C69.1 291.13 68.58 288.98 68.07 286.86C68 286.53 67.92 286.2 67.85 285.88C54.65 311.81 43.7 333.34 35.58 349.29C35.03 350.36 34.49 351.41 33.97 352.44C33.57 353.21 33.11 354.16 32.68 354.95C32.46 355.34 32.24 355.74 32.02 356.13L31.86 356.42L31.78 356.57L31.74 356.64C31.74 356.64 31.69 356.61 31.67 356.6L31.11 356.22C30.37 355.71 29.64 355.23 28.93 354.67C28.58 354.4 28.21 354.13 27.88 353.86L27.23 353.32C26.41 352.62 25.62 351.93 24.89 351.22C21.93 348.42 19.66 345.56 17.92 342.94C14.4 337.68 13.32 333.28 12.8 331.1V331.01Z"
     fill="black"
     id="path86" />
  <path
     d="M114.12 467.83C114.12 467.83 92.71 453.7 83.6 472.61C74.49 491.52 97.16 507.63 112.31 507.12C127.46 506.61 138.34 498.57 138.34 498.57"
     fill="#CB9B7C"
     id="path88" />
  <path
     d="M114.82 466.77C114.82 466.77 114.68 466.71 114.41 466.6C114.15 466.5 113.76 466.35 113.23 466.14C112.18 465.76 110.61 465.19 108.48 464.64C106.36 464.09 103.64 463.5 100.42 463.46C97.2402 463.44 93.4102 464.06 90.3002 466.6C88.7502 467.85 87.4002 469.52 86.3102 471.53C85.2202 473.55 84.3402 475.86 83.9602 478.31C83.6202 480.76 83.7102 483.38 84.5602 485.97C85.3602 488.57 86.8202 491.13 88.8102 493.5C90.8002 495.87 93.3102 498.06 96.2102 499.91C99.1102 501.78 102.42 503.34 106.01 504.32C107.8 504.81 109.67 505.14 111.56 505.22C112.48 505.29 113.53 505.2 114.53 505.2C115.54 505.16 116.56 505.05 117.6 504.97C121.72 504.49 125.98 503.53 130.23 501.95C135.55 500.01 137.91 498.61 138.4 498.72C138.88 498.78 137.41 500.32 134.14 502.33C130.88 504.32 125.76 506.8 119.12 508.17C118.3 508.36 117.44 508.49 116.57 508.62C116.13 508.68 115.69 508.75 115.25 508.82C114.8 508.86 114.35 508.9 113.9 508.94C112.13 509.16 110.06 509.16 108.1 508.92C104.14 508.45 100.15 507.2 96.3802 505.29C92.6102 503.38 89.0202 500.83 85.9902 497.58C82.9902 494.34 80.5502 490.3 79.5702 485.8C79.0802 483.56 78.9602 481.24 79.2102 479.01C79.4402 476.76 80.1002 474.63 80.9302 472.67C82.5502 468.8 85.1902 465.28 88.6502 463.09C90.3702 462 92.2402 461.3 94.0602 460.92C95.8802 460.54 97.6402 460.48 99.2702 460.58C102.53 460.78 105.26 461.62 107.47 462.47C111.89 464.24 114.31 466.12 114.82 466.77Z"
     fill="black"
     id="path90" />
  <path
     d="M186.87 395.15C186.87 395.15 184.19 412.93 204.35 418.97C224.51 425.01 232.49 417.87 235.85 426C239.21 434.13 205.73 442.78 205.73 442.78"
     fill="#CB9B7C"
     id="path92" />
  <path
     d="M185.62 394.96C185.62 394.96 185.62 395.13 185.65 395.38C185.67 395.64 185.71 396.02 185.78 396.52C185.94 397.51 186.16 398.99 186.75 400.85C187.34 402.7 188.24 404.97 189.83 407.3C191.41 409.63 193.72 411.98 196.87 413.82C198.43 414.76 200.23 415.53 202.18 416.21C203.19 416.5 204.18 416.83 205.26 417.12C206.36 417.39 207.49 417.64 208.65 417.88C213.32 418.83 218.44 419.35 224.27 419.26C225.74 419.26 227.27 419.23 228.95 419.31C229.8 419.36 230.69 419.44 231.65 419.64C232.61 419.84 233.68 420.19 234.67 420.84C235.67 421.48 236.5 422.39 237.06 423.32C237.34 423.78 237.59 424.26 237.78 424.72L237.93 425.07C237.98 425.19 238.04 425.4 238.08 425.57C238.16 425.92 238.29 426.27 238.3 426.64C238.31 427.01 238.3 427.38 238.29 427.75C238.23 428.1 238.14 428.43 238.05 428.77C237.97 429.13 237.8 429.37 237.67 429.67C237.53 429.96 237.38 430.24 237.21 430.46L236.7 431.16L236.15 431.75C235.79 432.16 235.39 432.45 235.01 432.8C233.45 434.07 231.79 434.99 230.09 435.84C228.38 436.68 226.63 437.41 224.82 438.08C221.21 439.42 217.42 440.54 213.47 441.52C208.51 442.67 206.1 442.89 205.73 442.64C205.35 442.39 207 441.66 210.05 440.46C213.1 439.25 217.59 437.6 222.71 435.27C225.25 434.09 227.98 432.74 230.48 431.03C231.7 430.19 232.9 429.17 233.51 428.2C233.7 427.96 233.73 427.75 233.84 427.55C233.84 427.47 233.86 427.39 233.88 427.31C233.91 427.23 233.85 427.19 233.87 427.12C233.9 427.06 233.84 427 233.82 426.94C233.82 426.91 233.8 426.88 233.8 426.85C233.8 426.81 233.73 426.71 233.7 426.64C233.56 426.32 233.39 426.05 233.23 425.79C232.89 425.28 232.53 424.95 232.09 424.71C231.65 424.47 231.07 424.3 230.35 424.2C228.92 424 227.14 424.05 225.34 424.08C221.72 424.16 217.9 424.08 214.22 423.6C210.53 423.13 206.96 422.32 203.61 421.3C200.19 420.14 196.91 418.74 194.21 416.69C191.52 414.66 189.39 412.22 187.94 409.74C186.5 407.25 185.77 404.77 185.37 402.67C184.97 400.56 184.97 398.79 185.07 397.48C185.17 396.17 185.4 395.34 185.59 394.96H185.62Z"
     fill="black"
     id="path94" />
  <path
     d="M222.554 397.461C225.275 396.161 226.114 392.247 224.428 388.719C222.742 385.191 219.17 383.384 216.449 384.685C213.728 385.985 212.889 389.899 214.575 393.427C216.261 396.955 219.833 398.761 222.554 397.461Z"
     fill="black"
     id="path96" />
  <path
     d="M166.076 424.006C168.628 422.787 169.414 419.116 167.833 415.807C166.252 412.498 162.902 410.804 160.351 412.023C157.799 413.242 157.013 416.913 158.594 420.222C160.175 423.531 163.525 425.225 166.076 424.006Z"
     fill="black"
     id="path98" />
  <path
     d="M261.51 478.94C261.51 478.94 236.35 479.17 224.64 489.17C212.93 499.18 203.58 511.7 196.64 505.27C189.7 498.84 187.44 481.42 195.26 468.25C203.08 455.09 217.03 458.5 231.89 456.33C246.75 454.17 251.86 445.98 251.86 445.98C251.86 445.98 249.97 449.69 246.55 452.26L254.11 478.14L261.52 478.92L261.51 478.94Z"
     fill="white"
     id="path100" />
  <path
     d="M255.89 480.97C258.05 480.65 259.68 480.64 260.6 480.13C260.83 480 261.02 479.85 261.16 479.65C261.16 479.56 261.47 479.44 261.55 479.25C261.64 479.07 261.55 478.96 261.43 478.93C261.19 478.86 260.83 479 260.39 478.78C260.19 478.66 259.92 478.39 260.01 477.8C260.06 477.52 260.24 477.19 260.5 476.94C260.63 476.81 260.77 476.7 260.91 476.61C261.05 476.52 261.23 476.45 261.15 476.38C261.15 476.38 261.01 476.38 260.43 476.4C259.85 476.42 258.84 476.46 257.09 476.59C255.35 476.73 252.87 476.94 249.37 477.44C245.88 477.97 241.34 478.73 235.62 480.62C232.77 481.6 229.59 482.81 226.31 484.91C222.9 487.1 220.11 489.89 216.9 492.86C215.33 494.34 213.68 495.89 211.96 497.52C210.24 499.1 208.43 500.71 206.48 502.12C204.58 503.51 202.33 504.72 200.65 504.6C199.82 504.57 199.09 504.2 198.29 503.51C197.46 502.66 196.64 501.71 195.99 500.53C193.31 495.87 192.24 489.43 192.94 482.85C193.3 479.55 194.13 476.17 195.54 472.92C196.97 469.65 198.89 466.56 201.66 464.32C204.49 462.15 208.12 460.85 212.24 460.3C216.34 459.68 220.81 459.59 225.51 459.25C227.86 459.09 230.27 458.85 232.73 458.46C235.21 458.07 237.71 457.45 240.19 456.6C242.66 455.73 245.1 454.56 247.4 453.07C248.53 452.29 249.67 451.48 250.71 450.52C251.24 450.04 251.75 449.55 252.24 449C252.49 448.74 252.73 448.44 252.97 448.16C253.22 447.84 253.42 447.6 253.71 447.15L249.93 445.01C257.47 449.28 252.02 446.2 253.7 447.15V447.17L253.68 447.2L253.65 447.25L253.59 447.34L253.49 447.49L253.29 447.76C253.16 447.93 253.03 448.1 252.9 448.25C252.64 448.56 252.39 448.85 252.15 449.1C251.67 449.63 251.22 450.03 250.87 450.36C250.14 450.99 249.79 451.29 250.05 451.06C250.29 450.81 251.22 450.16 252.75 448.38C252.94 448.16 253.14 447.9 253.35 447.63C253.47 447.46 253.54 447.37 253.7 447.12C246.32 442.94 251.65 445.96 250 445.03L249.98 445.08L249.94 445.16L249.84 445.34C249.56 445.83 249.2 446.39 248.79 446.96C247.95 448.11 246.84 449.43 245.33 450.58L244.57 452.86C246.09 448.3 245 451.59 245.34 450.57H245.35L245.37 450.55L245.41 450.52L245.49 450.46L245.65 450.33C245.76 450.25 245.86 450.17 245.96 450.08C246.16 449.9 246.36 449.75 246.54 449.57C246.91 449.23 247.24 448.89 247.53 448.56C248.12 447.91 248.59 447.3 248.95 446.79C249.32 446.28 249.59 445.85 249.78 445.54C249.87 445.38 249.95 445.25 250.01 445.15L250.05 445.08V445.06H250.06C249.28 444.62 256.85 448.9 253.65 447.09L253.63 447.13C253.58 447.2 253.54 447.26 253.5 447.31C253.38 447.47 253.35 447.51 253.4 447.42C253.43 447.38 253.48 447.3 253.55 447.19C253.57 447.15 253.6 447.12 253.62 447.08C246.54 443.07 251.66 445.96 250.08 445.07L250.07 445.11C250.05 445.16 250.02 445.21 249.99 445.26C249.74 445.72 249.24 446.57 248.44 447.61C248.04 448.13 247.57 448.7 247 449.28C246.71 449.57 246.41 449.86 246.08 450.14C245.92 450.29 245.74 450.42 245.57 450.56L245.44 450.67H245.42V450.69C246.05 448.79 244.55 453.29 244.71 452.83V452.88L244.75 452.97L244.86 453.35C245.47 455.41 246.17 457.78 246.95 460.4C248.5 465.64 250.35 471.89 252.36 478.68L253.97 480.02C250.76 477.34 253.08 479.28 252.36 478.68V478.67V478.65L252.34 478.61L252.32 478.54C252.32 478.54 252.29 478.45 252.28 478.41C252.26 478.33 252.24 478.27 252.22 478.21C252.19 478.1 252.17 478.04 252.17 478.02C252.16 477.98 252.2 478.1 252.27 478.33C252.29 478.39 252.31 478.45 252.33 478.52L252.36 478.63V478.66L252.37 478.67C253.08 479.26 250.78 477.34 253.97 480H254.02C254.14 480.01 254.28 480.03 254.43 480.04C254.72 480.06 255.03 480.06 255.33 480.04C256.02 479.92 256.65 479.62 257.33 479.4C257.99 479.18 258.62 479.05 259.11 478.98C260.1 478.85 260.55 478.87 260.44 478.88C260.34 478.89 259.7 478.92 258.65 478.92C257.59 478.93 256.2 478.77 254.13 478.39L253.96 478.36L253.93 478.22C252.6 472.32 250.32 463.2 247.41 452.03L247.11 452.95C249.39 451.29 251.31 449.14 252.87 446.48L250.99 445.42C250.13 446.58 248.86 447.79 247.53 448.79C246.19 449.81 244.72 450.72 243.14 451.48C240 453.05 236.45 454.03 232.77 454.6C229.06 455.16 225.15 455.32 221.13 455.47C217.11 455.63 212.91 455.76 208.6 456.63C206.46 457.12 204.27 457.73 202.22 458.82C201.16 459.29 200.22 459.98 199.24 460.63C198.76 460.96 198.34 461.38 197.89 461.75C197.46 462.14 196.98 462.5 196.62 462.95C195.85 463.82 195.03 464.66 194.42 465.64L193.44 467.06C193.15 467.55 192.89 468.04 192.62 468.53C192.36 469.03 192.06 469.51 191.83 470.02L191.14 471.56C190.65 472.57 190.32 473.65 189.94 474.7C188.52 478.95 187.89 483.43 187.98 487.87C188.07 492.3 188.82 496.74 190.68 500.89C191.61 502.95 192.77 504.97 194.5 506.68C195.29 507.55 196.43 508.45 197.75 508.99C199.08 509.55 200.59 509.72 201.92 509.56C203.27 509.41 204.44 509.01 205.5 508.53C206.55 508.05 207.52 507.51 208.4 506.92C210.18 505.75 211.72 504.48 213.19 503.21C216.11 500.66 218.72 498.09 221.27 495.69C223.8 493.32 226.31 490.94 228.63 489.35C231.1 487.71 233.8 486.54 236.37 485.53C238.99 484.6 241.51 483.82 243.91 483.26C248.68 482.09 252.81 481.45 255.95 480.99L255.89 480.97Z"
     fill="black"
     id="path102" />
  <path
     d="M222.16 459.54L230.74 482.88"
     stroke="black"
     stroke-width="2"
     stroke-miterlimit="10"
     stroke-linecap="round"
     id="path104" />
  <path
     d="M234.93 457.56L242.19 479.79"
     stroke="black"
     stroke-width="2"
     stroke-miterlimit="10"
     stroke-linecap="round"
     id="path106" />
  <path
     d="M199.26 467.9L207.84 491.24"
     stroke="black"
     stroke-width="2"
     stroke-miterlimit="10"
     stroke-linecap="round"
     id="path108" />
  <path
     d="M209.06 460.31L219.73 490.69"
     stroke="black"
     stroke-width="2"
     stroke-miterlimit="10"
     stroke-linecap="round"
     id="path110" />
  <path
     fill-rule="evenodd"
     clip-rule="evenodd"
     d="M223.31 363.79C223.31 363.79 222.93 363.75 222.3 363.79C221.99 363.79 221.61 363.79 221.19 363.8C220.77 363.8 220.3 363.87 219.8 363.9C217.81 364.07 215.37 364.48 213.39 364.98C211.28 365.43 208.85 366.08 206.51 366.96C204.14 367.8 201.85 369.06 199.35 369.97C198.11 370.43 196.8 370.66 195.61 370.67C195.31 370.67 195.02 370.67 194.73 370.67C194.44 370.65 194.17 370.61 193.89 370.58C193.34 370.54 192.83 370.44 192.35 370.33C190.41 369.94 188.92 369.41 187.95 369.14C186.74 368.12 188 367.87 189.23 367.61C189.39 367.58 190.06 367.68 191.11 367.8C192.16 367.94 193.58 368.05 195.06 367.88C195.24 367.86 195.43 367.83 195.62 367.81C195.8 367.76 195.99 367.72 196.17 367.67C196.55 367.6 196.93 367.42 197.32 367.29C198.12 366.93 198.97 366.48 199.95 365.88C201.88 364.7 204.21 363.33 206.65 362.28L208.5 361.52L210.37 360.86C210.98 360.63 211.64 360.45 212.3 360.28C212.96 360.12 213.59 359.89 214.26 359.8C216.88 359.23 219.49 359.17 221.8 359.32C226.47 359.67 229.85 361.21 231.12 361.91C233.87 363.47 234.99 364.78 235.28 365.39C235.57 366.05 234.9 365.91 233.82 365.62C232.72 365.31 231.08 364.77 229.21 364.39C227.34 364 225.24 363.75 223.3 363.83L223.31 363.79Z"
     fill="black"
     id="path112" />
  <path
     fill-rule="evenodd"
     clip-rule="evenodd"
     d="M130.91 402.94C130.91 402.94 130.95 402.83 131.07 402.66C131.18 402.48 131.34 402.23 131.54 401.91C131.75 401.59 131.98 401.2 132.29 400.78C132.61 400.38 132.97 399.93 133.36 399.45C134.96 397.59 137.4 395.6 139.66 394.54C141.94 393.48 144.54 392.52 147.27 391.88C150 391.21 152.76 390.99 155.11 390.45C157.47 389.92 159.49 388.72 161.03 387.45C162.58 386.2 163.68 384.98 164.34 384.18C165.82 383.44 165.54 384.68 165.17 386.03C165.13 386.2 164.72 386.84 163.93 387.81C163.17 388.78 161.97 390.09 160.23 391.41C158.49 392.75 155.97 393.79 153.62 394.4C151.27 395.04 148.99 395.65 146.74 396.56C144.51 397.46 142.22 398.6 140.34 399.78C138.46 401.05 136.85 402.49 135.58 403.97C134.32 405.45 133.43 406.96 132.76 408.21C132.12 409.48 131.7 410.49 131.46 411.07C130.38 413.59 130.02 415.04 129.64 415.49C129.46 415.71 129.29 415.72 129.13 415.56C128.97 415.38 128.82 414.98 128.71 414.42C128.5 413.29 128.47 411.47 128.83 409.39C129.18 407.32 129.91 405.01 130.94 402.94H130.91Z"
     fill="black"
     id="path114" />
  <path
     d="M105.29 473.41C105.29 473.41 96.0399 474.03 95.4799 482.3C94.9199 490.57 104.99 495.45 110.42 492.74C115.85 490.03 119.88 483.5 125.31 484.97C130.74 486.44 130.94 492.41 130.94 492.41"
     fill="#CB9B7C"
     id="path116" />
  <path
     d="M105.23 472.57C105.23 472.57 105.15 472.59 104.98 472.64C104.83 472.69 104.61 472.77 104.31 472.87C103.73 473.09 102.87 473.43 101.81 474.01C100.76 474.6 99.4902 475.44 98.3802 476.76C97.2602 478.07 96.5202 479.94 96.5002 482.13C96.4802 482.67 96.5702 483.23 96.6202 483.78C96.7802 484.32 96.8402 484.9 97.1102 485.43C97.5202 486.53 98.2302 487.58 99.1702 488.51C101.01 490.36 103.92 491.85 107.02 491.85C109.93 492.01 112.87 489.22 116.42 486.62C117.31 485.96 118.29 485.3 119.4 484.74C120.5 484.19 121.76 483.71 123.16 483.67C124.56 483.62 125.92 484.04 127.08 484.69C128.27 485.35 129.27 486.37 129.95 487.54C130.75 489.03 130.94 490.25 130.99 491.05C131.03 491.86 130.93 492.29 130.83 492.38C130.59 492.59 130.45 491.48 129.6 489.77C129.17 488.93 128.54 487.96 127.55 487.21C127.07 486.81 126.47 486.53 125.84 486.27C125.16 486.07 124.48 485.88 123.77 485.94C122.35 485.94 120.84 486.76 119.33 487.88C117.81 489.02 116.28 490.46 114.51 491.86C113.62 492.55 112.68 493.25 111.6 493.83C111.11 494.14 110.42 494.39 109.79 494.64C109.14 494.78 108.48 494.99 107.83 495C105.2 495.23 102.68 494.54 100.51 493.36C98.3302 492.18 96.4302 490.46 95.2602 488.3C94.0602 486.16 93.7002 483.68 94.0002 481.53C94.2602 479.37 95.2302 477.37 96.5302 476.01C97.8202 474.63 99.2802 473.83 100.52 473.33C103.05 472.36 104.77 472.42 105.24 472.55L105.23 472.57Z"
     fill="black"
     id="path118" />
  <path
     d="M73.47 744.64C74.15 680.82 69.9 578.13 90.05 560.6C97.94 553.74 118.56 547.34 134.89 544.02C143.24 553.52 155.15 561.78 171.55 562.46C190.15 563.23 203.15 553.91 211.74 543.72C226.45 546.72 242.94 553.31 252.98 560.6C284.18 583.25 286.56 669.16 286.56 734.71"
     fill="black"
     id="path120" />
  <path
     d="M71.93 730.16C72.16 741.26 71.6 746.76 75.89 743.9C75.89 743.9 75.89 743.53 75.93 739.39C75.96 735.26 75.99 727.36 75.95 712.35C75.95 704.85 75.94 695.56 75.93 684.06C75.97 672.57 76.04 658.88 76.57 642.6C76.85 634.46 77.24 625.67 77.97 616.22C78.73 606.78 79.72 596.62 81.83 585.99C82.92 580.7 84.28 575.25 86.5 570.11C87.63 567.58 89 565.1 90.78 563.2C92.57 561.4 95.13 559.81 97.78 558.42C103.15 555.63 109.2 553.43 115.5 551.44C121.82 549.47 128.46 547.76 135.37 546.34L133.12 545.58C137.6 547.09 134.35 546 135.34 546.34H135.32L135.27 546.36L135.17 546.38L134.98 546.42L134.6 546.5L133.84 546.66C133.33 546.77 132.84 546.87 132.34 546.98C131.36 547.2 130.39 547.42 129.46 547.63C127.6 548.08 125.85 548.5 124.25 548.92C121.04 549.75 118.42 550.53 116.59 551.07C112.94 552.21 112.41 552.37 116.86 550.97C119.09 550.29 122.59 549.26 127.64 548.02C128.9 547.7 130.26 547.39 131.72 547.06C132.45 546.89 133.21 546.74 133.99 546.57C134.38 546.49 134.78 546.4 135.18 546.32L135.33 546.29C134.36 545.96 137.55 547.02 133.17 545.55L133.2 545.58L133.25 545.64L133.47 545.88L133.92 546.37C136.32 548.99 139.2 551.81 142.81 554.5C146.42 557.18 150.75 559.77 155.93 561.67C161.09 563.58 167.09 564.79 173.62 564.77C175.25 564.83 176.92 564.66 178.62 564.56C180.31 564.35 182.05 564.15 183.79 563.76C187.27 563.04 190.82 561.91 194.3 560.29C201.28 557.07 207.86 551.85 213.48 545.2L211.29 545.96C215.65 544.46 212.47 545.58 213.42 545.26L213.36 545.32L213.25 545.45L213.03 545.71L212.58 546.22C212.28 546.56 211.99 546.89 211.69 547.22C211.08 547.86 210.48 548.49 209.89 549.12C209.27 549.72 208.67 550.3 208.07 550.88C207.45 551.43 206.84 551.97 206.24 552.5C203.8 554.58 201.36 556.3 199.02 557.74C194.29 560.55 189.95 562.16 186.39 563.09C185.5 563.34 184.67 563.55 183.87 563.68C183.08 563.83 182.34 563.99 181.65 564.1C180.26 564.27 179.1 564.44 178.14 564.51C176.22 564.61 175.14 564.68 174.88 564.67C174.61 564.67 175.15 564.66 176.46 564.56C177.76 564.5 179.83 564.33 182.59 563.83C185.35 563.36 188.78 562.43 192.66 560.8C196.53 559.17 200.82 556.72 205.05 553.23C207.16 551.48 209.3 549.52 211.34 547.27C211.86 546.72 212.35 546.12 212.87 545.54L213.25 545.1L213.3 545.04C209.37 546.41 212.25 545.43 211.39 545.74L211.53 545.77L211.8 545.83C212.17 545.91 212.54 545.99 212.91 546.07C214.4 546.38 215.9 546.76 217.45 547.15C223.61 548.75 230.22 550.97 237.04 553.98C240.44 555.49 243.89 557.21 247.28 559.23C248.97 560.24 250.66 561.32 252.24 562.53C253 563.15 253.77 563.78 254.55 564.41C255.26 565.12 255.99 565.83 256.71 566.55C259.5 569.56 261.95 573.08 264.13 576.92C266.29 580.78 268.1 584.98 269.78 589.36C271.41 593.76 272.81 598.39 274.09 603.16C275.29 607.95 276.45 612.88 277.36 617.97C279.29 628.12 280.63 638.83 281.72 649.92C283.81 672.13 284.58 695.98 284.77 720.99C285.17 735.01 285.47 737.71 285.82 731.63C286.13 725.55 286.54 710.68 286.21 689.56C286 679 285.64 666.88 284.63 653.53C283.63 640.19 282.09 625.6 278.95 610.3C277.34 602.66 275.36 594.83 272.46 587.06C269.52 579.33 265.79 571.51 259.95 564.82C257.02 561.51 253.4 558.66 249.65 556.37C245.87 554.05 241.91 552.02 237.83 550.2C229.67 546.59 221.06 543.75 212.12 541.83L211.03 541.6L210.29 542.47C205.7 547.84 200.21 552.49 193.91 555.66C190.77 557.24 187.45 558.45 184.02 559.25C180.59 560.02 177.06 560.37 173.52 560.34C166.44 560.32 159.4 558.71 153.11 555.54C146.8 552.4 141.27 547.81 136.61 542.49L135.74 541.5L134.44 541.76C128.55 542.96 122.74 544.36 117.03 546.04C111.32 547.71 105.69 549.6 100.24 551.97C97.52 553.17 94.83 554.47 92.23 556.07L90.31 557.35L88.44 558.82C87.17 559.93 86.15 561.19 85.24 562.48C83.47 565.07 82.19 567.81 81.14 570.55C80.09 573.3 79.26 576.06 78.55 578.82C77.12 584.34 76.17 589.84 75.37 595.26C74.6 600.68 74.02 606.03 73.56 611.29C72.64 621.81 72.16 631.96 71.84 641.66C71.24 661.05 71.29 678.59 71.4 693.57C71.53 708.55 71.75 720.98 71.93 730.14V730.16Z"
     fill="black"
     id="path122" />
  <path
     d="M184.22 720.06C179.46 720.06 174.69 720.08 169.93 720.04C168.83 720.04 168.37 720.35 168.39 721.52C168.45 725.11 168.39 728.71 168.44 732.3C168.46 733.43 168.27 734.12 166.91 734.07C165.29 734 165.21 734.02 165.21 732.41C165.21 728.43 165.27 724.44 165.21 720.46C165.1 712.84 164.95 705.24 162.89 697.8C161.63 693.25 160.64 688.63 158.32 684.45C156.79 681.69 155.05 679.03 153.72 676.19C152.85 674.33 151.66 673.87 149.77 673.89C147.45 673.92 145.07 673.85 142.82 673.38C139.55 672.69 138.53 671.34 138.48 668.02C138.35 659.67 138.31 651.31 138.3 642.96C138.3 641.74 138.45 640.37 139 639.32C140.43 636.61 142.87 635.4 145.94 635.36C150.35 635.29 154.77 635.12 159.18 635.04C166.84 634.89 174.49 634.77 182.14 635.36C184.26 635.52 185.8 636.35 186.57 638.36C187.27 640.17 187.96 641.99 188.52 643.84C188.83 644.87 189.22 645.16 190.27 644.77C192.83 643.83 195.34 643.75 197.67 645.52C198.5 646.15 199.11 645.78 199.23 644.83C199.35 643.94 199.33 643.01 199.27 642.11C199.18 640.65 199.66 639.46 200.78 638.56C202.83 636.89 205.18 636.04 207.84 636C210.61 635.96 213.37 635.84 216.14 635.83C224.75 635.81 233.36 635.8 241.97 635.85C243.78 635.86 245.6 636.09 247.4 636.31C249.59 636.58 250.54 637.48 250.92 639.64C251.24 641.47 251.65 643.32 251.68 645.16C251.79 652.21 251.86 659.27 251.76 666.32C251.69 671.56 249.01 674.02 243.8 674.05C242.89 674.05 241.96 673.97 241.08 674.14C240.42 674.27 239.57 674.58 239.26 675.09C237.1 678.68 234.58 682.16 233.1 686.03C230.87 691.91 229.15 698.01 227.65 704.13C226.03 710.74 225.29 717.5 225.37 724.34C225.4 727.11 225.33 729.88 225.4 732.65C225.44 734.01 224.69 734.05 223.67 734.06C222.65 734.07 222.18 733.82 222.2 732.67C222.26 729.08 222.22 725.48 222.22 721.89C222.22 719.92 222.22 719.9 220.2 719.9C208.21 719.9 196.22 719.9 184.23 719.9C184.23 719.95 184.23 720.01 184.23 720.06H184.22ZM219.99 717.12C222.26 717.12 222.4 716.96 222.74 714.69C223.28 710.97 223.78 707.23 224.49 703.54C226.33 694 229.82 685.12 235.25 677.03C235.56 676.56 235.88 676.09 236.16 675.61C236.7 674.65 236.44 674.17 235.3 674.12C234.44 674.08 233.57 674.12 232.7 674.12C224.3 674.05 215.9 674.02 207.51 673.86C204.42 673.8 201.57 672.84 199.83 670.03C199.24 669.08 198.86 667.86 198.82 666.75C198.68 662.29 198.73 657.83 198.69 653.37C198.67 650.91 197.84 648.88 195.48 647.74C193.74 646.9 191.94 646.95 190.19 647.61C189.76 647.77 189.38 648.4 189.22 648.89C189.03 649.49 189.11 650.17 189.07 650.81C188.76 656.51 188.61 662.21 188.09 667.89C187.76 671.47 185.64 673.59 182.89 673.76C180.95 673.88 179 673.95 177.06 673.97C171.04 674.04 165.02 674.07 159.01 674.14C157.29 674.16 157.03 674.66 157.82 676.18C159.35 679.09 160.93 681.97 162.35 684.94C164.32 689.07 165.31 693.51 166.25 697.97C167.46 703.7 168.32 709.47 168.21 715.35C168.19 716.39 168.72 716.88 169.62 717.05C170.38 717.19 171.16 717.29 171.94 717.29C179.99 717.31 188.05 717.3 196.1 717.3C196.1 717.25 196.1 717.19 196.1 717.14C204.07 717.14 212.04 717.14 220 717.14L219.99 717.12ZM209.74 638.15C208.41 638.17 207.06 638.32 205.75 638.57C203.08 639.09 201.61 640.82 201.54 643.56C201.46 646.72 201.5 649.88 201.52 653.04C201.54 657.11 201.59 661.18 201.62 665.25C201.64 668.88 203.67 670.69 207.24 670.65C212.9 670.59 218.57 670.74 224.23 670.78C230.94 670.82 237.65 670.88 244.36 670.83C246.98 670.81 248.18 669.7 248.67 667.12C249.64 662.02 249.47 656.87 249.28 651.72C249.2 649.6 249.09 647.49 248.91 645.38C248.78 643.97 248.57 642.55 248.25 641.17C247.92 639.75 246.83 638.99 245.43 638.85C242.68 638.56 239.92 638.23 237.16 638.17C232.49 638.06 227.81 638.14 223.13 638.14C218.67 638.14 214.21 638.11 209.75 638.16L209.74 638.15ZM148.74 638.15C147.28 638.17 145.8 638.32 144.36 638.6C141.9 639.08 140.88 640.51 140.92 643.01C141.03 650.84 141.13 658.67 141.22 666.51C141.25 669.35 142.63 670.9 145.49 670.91C155.57 670.95 165.65 670.93 175.74 670.88C177.68 670.88 179.63 670.73 181.56 670.49C184.13 670.16 185.07 669.18 185.25 666.62C185.64 661.19 185.97 655.75 186.27 650.31C186.45 647.09 185.48 644.04 184.4 641.09C183.69 639.16 182.22 638.01 179.91 638.05C174.63 638.14 169.35 638.08 164.07 638.08C164.07 638.1 164.07 638.12 164.07 638.14C158.96 638.14 153.85 638.11 148.74 638.16V638.15Z"
     fill="white"
     id="path124" />
  <path
     d="M182.22 615.4C182.07 619.46 181.91 623.52 181.79 627.59C181.74 629.33 182.23 630.31 183.17 630.27C184.68 630.21 184.78 628.93 184.81 627.9C184.93 624.14 184.93 620.37 184.96 616.61C184.96 615.57 184.96 614.53 184.9 613.49C184.86 612.77 184.64 611.91 183.76 612.11C183.21 612.24 182.63 612.91 182.36 613.48C182.11 614.03 182.24 614.75 182.2 615.4C182.2 615.4 182.2 615.4 182.21 615.4H182.22Z"
     fill="white"
     id="path126" />
  <path
     d="M236.41 626.54C236.41 622.7 236.43 618.86 236.4 615.02C236.4 614.17 236.67 612.97 235.38 612.84C233.99 612.7 233.84 613.91 233.79 614.89C233.56 618.68 233.4 622.48 233.23 626.27C233.19 627.21 233.08 628.19 233.28 629.08C233.39 629.56 234.07 630.21 234.52 630.24C234.96 630.26 235.66 629.68 235.85 629.2C236.17 628.38 236.18 627.44 236.32 626.55C236.35 626.55 236.38 626.54 236.41 626.53V626.54Z"
     fill="white"
     id="path128" />
  <path
     d="M142.53 618.83C142.68 621.95 142.84 625.23 143.01 628.5C143.03 628.8 143.05 629.17 143.22 629.37C143.56 629.74 144.06 630.29 144.41 630.24C144.87 630.17 145.47 629.65 145.61 629.2C145.83 628.48 145.78 627.66 145.75 626.89C145.6 622.54 145.41 618.19 145.24 613.84C145.2 612.9 145.35 611.81 144.06 611.58C143.17 611.42 142.55 612.39 142.53 613.87C142.51 615.47 142.53 617.07 142.53 618.83Z"
     fill="white"
     id="path130" />
  <path
     d="M151.99 615.66C152.12 619.11 152.23 622.55 152.39 626C152.42 626.68 152.55 627.39 152.82 628.01C152.99 628.42 153.49 628.93 153.85 628.94C154.23 628.94 154.82 628.48 154.97 628.09C155.26 627.34 155.45 626.49 155.41 625.7C155.2 621.57 154.91 617.44 154.63 613.31C154.58 612.58 154.37 611.9 153.47 611.87C152.48 611.83 152.09 612.54 151.98 613.35C151.88 614.11 151.96 614.9 151.96 615.68C151.97 615.68 151.98 615.68 151.99 615.68V615.66Z"
     fill="white"
     id="path132" />
  <path
     d="M164.12 620.09C164.12 617.88 164.12 615.68 164.12 613.47C164.12 613.26 164.15 612.99 164.04 612.84C163.71 612.39 163.31 611.99 162.94 611.56C162.5 611.97 161.82 612.3 161.67 612.8C161.39 613.73 161.31 614.76 161.32 615.75C161.36 619.64 161.47 623.54 161.56 627.43C161.56 627.69 161.51 628.03 161.65 628.19C162.01 628.61 162.44 629.22 162.88 629.25C163.27 629.27 163.85 628.69 164.06 628.24C164.31 627.72 164.3 627.06 164.31 626.46C164.34 624.34 164.32 622.22 164.32 620.1C164.26 620.1 164.19 620.1 164.13 620.1L164.12 620.09Z"
     fill="white"
     id="path134" />
  <path
     d="M192.83 621.4C192.83 623.34 192.81 625.29 192.84 627.23C192.84 627.78 192.87 628.4 193.13 628.86C193.36 629.27 193.93 629.77 194.33 629.75C194.71 629.73 195.19 629.15 195.37 628.71C195.61 628.13 195.69 627.45 195.71 626.81C195.79 622.66 195.87 618.52 195.86 614.37C195.86 613.58 195.94 612.41 194.79 612.28C193.58 612.15 193.2 613.22 193.04 614.16C192.86 615.26 192.86 616.39 192.84 617.51C192.81 618.81 192.84 620.1 192.84 621.4H192.83Z"
     fill="white"
     id="path136" />
  <path
     d="M226.35 621.47C226.35 619.18 226.37 616.89 226.34 614.6C226.33 613.79 226.32 612.83 225.17 612.78C224.07 612.73 223.62 613.53 223.55 614.45C223.44 615.91 223.44 617.38 223.46 618.85C223.49 622.05 223.54 625.24 223.62 628.44C223.64 629.34 223.63 630.38 225 630.32C226.3 630.26 226.33 629.23 226.35 628.35C226.4 626.06 226.37 623.77 226.37 621.48L226.35 621.47Z"
     fill="white"
     id="path138" />
  <path
     d="M216.76 621.07C216.76 618.95 216.8 616.83 216.74 614.71C216.72 613.86 217.02 612.63 215.78 612.47C214.36 612.29 214.28 613.63 214.2 614.55C214.01 616.83 213.99 619.13 213.91 621.42C213.84 623.45 213.78 625.48 213.72 627.51C213.71 627.9 213.71 628.29 213.77 628.67C213.91 629.45 214.1 630.29 215.1 630.31C216.11 630.33 216.6 629.61 216.63 628.71C216.7 626.51 216.68 624.3 216.7 622.1C216.7 621.75 216.7 621.41 216.7 621.06C216.72 621.06 216.74 621.06 216.76 621.06V621.07Z"
     fill="white"
     id="path140" />
  <path
     d="M206.51 620.09C206.51 617.89 206.51 615.69 206.51 613.48C206.51 612.78 206.51 612 205.54 611.94C204.54 611.88 204.04 612.46 203.94 613.42C203.85 614.32 203.73 615.22 203.71 616.13C203.62 619.45 203.55 622.77 203.52 626.09C203.52 626.77 203.58 627.5 203.84 628.11C204.04 628.57 204.61 628.87 205.02 629.24C205.36 628.82 205.96 628.42 206.01 627.96C206.28 625.34 206.42 622.71 206.61 620.09H206.53H206.51Z"
     fill="white"
     id="path142" />
  <path
     d="M171.74 620.5C171.74 622.49 171.72 624.48 171.74 626.47C171.76 628.06 172.52 629.34 173.4 629.17C174.86 628.88 174.73 627.55 174.71 626.55C174.63 622.31 174.45 618.07 174.26 613.84C174.22 613.06 174.24 612.02 173.05 612.05C171.95 612.08 171.65 612.97 171.63 613.88C171.59 616.09 171.62 618.29 171.62 620.5H171.74Z"
     fill="white"
     id="path144" />
  <path
     d="M242.26 620.67C242.06 622.9 241.87 625.13 241.67 627.36C241.64 627.66 241.63 627.96 241.64 628.27C241.68 629.07 241.51 630.08 242.68 630.16C243.68 630.23 243.91 629.35 244.07 628.58C245.09 623.84 244.77 619.04 244.72 614.25C244.72 613.95 244.3 613.39 244.16 613.41C243.66 613.5 242.94 613.67 242.76 614.04C242.38 614.78 242.18 615.67 242.12 616.51C242.02 617.89 242.09 619.27 242.09 620.66H242.24L242.26 620.67Z"
     fill="white"
     id="path146" />
  <path
     d="M190.49 689.89C191.22 690.33 191.66 690.81 191.95 690.73C192.37 690.62 192.69 690.11 193.06 689.77C192.7 689.44 192.37 688.87 191.98 688.84C191.62 688.81 191.21 689.34 190.48 689.89H190.49Z"
     fill="white"
     id="path148" />
  <path
     d="M195.39 689.75C196.15 690.23 196.57 690.72 196.9 690.66C197.27 690.6 197.71 690.08 197.8 689.68C197.86 689.44 197.28 688.78 197.04 688.81C196.6 688.86 196.19 689.26 195.39 689.75Z"
     fill="white"
     id="path150" />
  <path
     d="M223.15 655.3C223.15 657.23 224.32 658.52 226.09 658.52C227.83 658.52 229.1 657.17 229.12 655.31C229.14 653.65 227.65 652.06 226.07 652.05C224.34 652.04 223.15 653.35 223.14 655.3H223.15Z"
     fill="white"
     id="path152" />
  <path
     d="M166.43 655.7C166.42 653.79 165.04 652.23 163.35 652.2C161.77 652.17 160.14 653.83 160.1 655.49C160.07 657.18 161.74 658.82 163.45 658.78C165.11 658.74 166.45 657.36 166.43 655.7Z"
     fill="white"
     id="path154" />
  <path
     d="M59.6699 739.78C59.6699 739.78 93.1299 630.73 94.9999 595.5C95.3899 588.2 91.0199 568.03 65.7699 584.4C40.5199 600.77 12.8699 728.68 12.8699 728.68"
     fill="#CB9B7C"
     id="path156" />
  <path
     fill-rule="evenodd"
     clip-rule="evenodd"
     d="M80.2399 658.7C80.2399 658.7 80.8699 655.98 81.9299 651.44C82.4499 649.17 83.0799 646.44 83.7899 643.37C84.4699 640.29 85.2199 636.87 86.0199 633.22C86.7699 629.56 87.5699 625.67 88.3899 621.65C88.7599 619.64 89.1299 617.6 89.4999 615.54C89.8599 613.48 90.2899 611.41 90.5599 609.34C90.8699 607.27 91.1799 605.19 91.4899 603.13C91.7399 601.07 91.8899 599.04 92.0999 597.03C92.1499 596.53 92.1999 596.03 92.2499 595.53C92.2899 595.06 92.2899 594.66 92.2799 594.2C92.2599 593.31 92.1799 592.41 92.0499 591.53C91.7899 589.76 91.2999 588.08 90.6499 586.59C89.9499 585.05 89.0199 583.66 87.8199 582.66C86.6399 581.62 85.1699 581.04 83.5199 580.78C80.1599 580.36 76.2399 581.49 72.5799 583.25C70.7199 584.1 68.9099 585.17 67.0999 586.26C65.4899 587.25 64.0199 588.65 62.6299 590.19C59.8699 593.33 57.4899 597.01 55.2999 600.83C50.9399 608.5 47.3199 616.75 43.9899 624.98C40.6699 633.23 37.6999 641.51 34.9599 649.58C29.5099 665.73 25.0199 681.03 21.4499 693.95C17.8799 706.87 15.2399 717.42 13.6599 724.18C10.7499 733.63 11.8299 725.8 13.1399 717.6C13.4999 715.56 17.2099 698.5 23.9899 673.79C27.4199 661.45 31.5999 647.18 36.9199 632.06C39.5999 624.5 42.5499 616.72 46.0599 608.94C47.8299 605.05 49.7099 601.16 51.8799 597.33C54.0599 593.51 56.4399 589.72 59.5799 586.24C59.9699 585.8 60.3699 585.37 60.8099 584.96C61.2299 584.54 61.6599 584.12 62.1399 583.74C62.5999 583.34 63.0799 582.95 63.6099 582.59C63.8599 582.41 64.1299 582.21 64.3699 582.06L65.0899 581.61C66.9799 580.39 68.9999 579.3 71.0699 578.3C73.1799 577.34 75.3899 576.49 77.7699 575.96C80.1399 575.43 82.7299 575.24 85.3499 575.76C87.9599 576.28 90.5299 577.67 92.3399 579.6C93.2699 580.55 94.0499 581.6 94.6699 582.7C95.3099 583.79 95.8299 584.92 96.2299 586.07C97.0599 588.36 97.4899 590.7 97.6699 593.06C97.7099 593.65 97.7299 594.25 97.7199 594.86C97.7099 595.16 97.7099 595.49 97.6799 595.77L97.5999 596.58C97.4999 597.66 97.3899 598.74 97.2899 599.82C97.1899 600.9 97.0799 601.97 96.9799 603.04C96.8499 604.1 96.6699 605.14 96.5199 606.18C96.1999 608.27 95.8799 610.34 95.5699 612.4C94.7799 616.47 94.0899 620.5 93.2399 624.42C91.5999 632.27 89.8499 639.78 88.1199 646.89C81.1099 675.3 74.6399 697.25 71.9699 706.18C66.1399 725.31 62.7199 735.28 61.2999 738.7C59.8699 742.11 60.4499 738.95 62.2099 731.7C65.7299 717.2 73.9399 686.29 80.1999 658.7H80.2399Z"
     fill="black"
     id="path158" />
  <path
     d="M101.69 559.46C101.69 559.46 128.12 565.35 121.6 598.45C115.08 631.56 98.7898 671.29 98.7898 671.29L18.7798 638.92C18.7798 638.92 52.4498 538.86 101.69 559.46Z"
     fill="black"
     id="path160" />
  <path
     fill-rule="evenodd"
     clip-rule="evenodd"
     d="M115.63 631.29C115.63 631.29 114.88 633.94 113.54 638.33C112.2 642.73 110.23 648.86 107.81 655.83C106.6 659.32 105.27 663.01 103.84 666.8C103.45 667.81 103.07 668.83 102.67 669.86C102.3 670.8 101.93 671.74 101.55 672.68L100.98 674.09L100.7 674.8L100.56 675.15C100.53 675.2 100.52 675.29 100.48 675.31L100.3 675.24C97.4598 674.11 94.5998 672.97 91.7398 671.83C84.0198 668.75 76.2798 665.61 69.3698 662.71C54.9398 656.67 39.0398 649.92 22.8998 643.03L19.2598 641.49L16.7298 640.41L16.1098 640.14C16.0198 640.14 16.1098 640.05 16.1098 640L16.1698 639.84L16.2898 639.51L16.7498 638.21L17.6998 635.62L18.3598 633.94L19.6198 630.86C21.3198 626.77 23.1398 622.73 25.0398 618.77C28.8398 610.84 32.9798 603.19 37.4598 596.08C41.9298 588.96 46.7498 582.38 51.8898 576.67C57.0298 570.98 62.5098 566.15 68.1598 562.75C73.7898 559.32 79.5798 557.42 84.6998 556.95C87.2598 556.7 89.6398 556.76 91.7598 557.04C92.8298 557.13 93.8198 557.38 94.7698 557.53C95.6998 557.77 96.5798 557.96 97.3898 558.2C99.6198 559.09 100.73 559.84 101.12 560.19C101.5 560.56 101.14 560.62 100.29 560.5C98.6198 560.19 94.9298 559.33 91.1798 559.35C90.7098 559.35 89.3798 559.24 87.2998 559.35C85.2198 559.45 82.3798 559.82 79.0198 560.91C75.6598 562 71.8198 563.89 67.8398 566.71C63.8598 569.54 59.7498 573.29 55.7298 577.83C47.6698 586.91 40.0098 599.07 33.1898 612.85C29.7798 619.75 26.5598 627.07 23.6498 634.65C23.3398 635.47 23.0398 636.28 22.7298 637.11V637.13H22.7398L23.2698 637.34C24.2398 637.73 25.2098 638.12 26.1798 638.51C30.0598 640.08 33.9698 641.65 37.8898 643.24C53.5698 649.58 69.4598 656.01 84.7398 662.19C88.5598 663.74 92.3398 665.27 96.0598 666.78C97.3998 667.32 96.8998 667.12 97.0098 667.17H97.0198C97.5698 665.76 98.1098 664.37 98.6498 662.99C101.43 655.75 103.97 648.71 106.26 642C108.55 635.28 110.57 628.89 112.35 622.94C113.19 619.96 114.06 617.1 114.77 614.36C115.14 612.99 115.5 611.65 115.84 610.35C116.16 609.04 116.47 607.77 116.78 606.53C117.42 604.06 117.89 601.72 118.38 599.54C118.5 599 118.62 598.46 118.73 597.94C118.82 597.43 118.91 596.93 119 596.44C119.09 595.95 119.17 595.47 119.26 595C119.32 594.53 119.38 594.07 119.43 593.62C119.89 590.03 119.85 587.12 119.72 585.01C119.36 580.5 118.2 576.67 116.56 573.66C115.76 572.14 114.85 570.82 113.91 569.67C112.98 568.51 112.01 567.53 111.07 566.69C109.19 564.99 107.41 563.86 105.97 563.01C104.52 562.17 103.39 561.64 102.62 561.27C101.86 560.9 101.45 560.7 101.41 560.58C101.35 560.46 101.59 560.39 102.2 560.46C103.39 560.6 105.93 561.2 109.13 562.92C112.31 564.62 116.2 567.57 119.14 572.29C120.6 574.63 121.82 577.37 122.59 580.39C123.37 583.41 123.75 586.67 123.75 590.04C123.77 593.4 123.33 596.88 122.72 600.3C122.41 602.01 122.1 603.73 121.79 605.46C121.43 607.18 121.08 608.92 120.72 610.66C119.21 617.6 117.45 624.58 115.6 631.3L115.63 631.29Z"
     fill="black"
     id="path162" />
  <path
     d="M324.07 718.88C337.093 718.88 347.65 708.323 347.65 695.3C347.65 682.277 337.093 671.72 324.07 671.72C311.047 671.72 300.49 682.277 300.49 695.3C300.49 708.323 311.047 718.88 324.07 718.88Z"
     fill="#CB9B7C"
     id="path164" />
  <path
     d="M343.1 682.03L269.31 553.41L242.21 568.07L304.04 707.85"
     fill="#CB9B7C"
     id="path166" />
  <path
     d="M264.873 574.42C271.558 569.573 273.083 560.273 268.279 553.646C263.475 547.019 254.161 545.576 247.476 550.422C240.791 555.268 239.267 564.569 244.071 571.196C248.875 577.822 258.188 579.266 264.873 574.42Z"
     fill="#CB9B7C"
     id="path168" />
  <path
     d="M268.07 553C268.07 553 293.15 587.21 335.94 668.03C362.35 718.63 270.06 559.88 268.07 553Z"
     fill="black"
     id="path170" />
  <path
     d="M241.06 566.39C241.06 566.39 262.42 603.7 296.48 689.9C317.43 743.83 242.31 573.53 241.06 566.39Z"
     fill="black"
     id="path172" />
  <path
     d="M267.98 554.45C267.98 554.45 271.47 542.24 270.75 531.79C270.03 521.34 268.85 510.44 268.29 504.01C267.61 496.27 261.14 499.77 259.42 506.65C256.81 517.09 258.77 522.36 258.77 522.36C258.77 522.36 248.69 480.81 240.11 473.65C231.53 466.49 239 488.1 242.37 506.86C242.37 506.86 228.08 476.07 221.2 475.32C212.17 474.34 230.38 512.82 230.38 512.82C230.38 512.82 209.44 482.49 206.18 485.51C202.54 488.88 220.2 522.55 220.2 522.55C220.2 522.55 203.98 503 202.53 505.77C199.66 511.26 222.81 558.08 245.45 567.9"
     fill="#CB9B7C"
     id="path174" />
  <path
     d="M268.5 554.6C268.5 554.6 268.87 553.22 269.47 550.22C270.02 547.22 270.93 542.58 271.06 536C271.15 532.7 270.61 528.98 270.21 524.77C269.79 520.55 269.32 515.84 268.79 510.61C268.66 509.3 268.53 507.96 268.39 506.59C268.32 505.9 268.25 505.21 268.18 504.5C268.12 503.79 268.03 503.09 267.85 502.41C267.66 501.73 267.39 501.05 266.92 500.53C266.46 500.01 265.76 499.72 265.06 499.83C263.64 500.05 262.45 501.21 261.56 502.44C259.71 504.98 259.25 508.35 258.72 511.72C258.5 513.42 258.37 515.16 258.4 516.94C258.43 518.7 258.59 520.56 259.12 522.24L258.36 522.47C257.13 517.74 255.66 512.5 253.87 506.69C252.07 500.88 250.01 494.45 247.18 487.54C246.48 485.81 245.7 484.06 244.85 482.3C244 480.54 243.06 478.77 241.94 477.1C241.66 476.69 241.35 476.29 241.06 475.88C240.73 475.52 240.43 475.1 240.07 474.78C239.42 474.11 238.5 473.43 237.73 473.11C237.54 473.04 237.36 473 237.26 473C237.2 473 237.15 473.03 237.11 473.07C237 473.17 236.84 473.66 236.81 474.12C236.72 475.1 236.82 476.21 236.96 477.3C237.57 481.73 238.76 486.39 239.9 491.26C241.06 496.14 242.28 501.26 243.28 506.69L241.45 507.27C239.2 502.55 236.67 497.59 233.78 492.49C232.34 489.94 230.79 487.35 229.08 484.77C228.22 483.49 227.32 482.21 226.36 480.98C225.4 479.75 224.36 478.54 223.2 477.56C222.63 477.07 222 476.67 221.43 476.46C221.3 476.44 221.17 476.4 221.03 476.36C220.89 476.36 220.75 476.34 220.65 476.36C220.43 476.39 220.31 476.45 220.18 476.59C219.91 476.86 219.73 477.59 219.7 478.33C219.66 479.09 219.72 479.91 219.83 480.73C220.29 484.04 221.34 487.47 222.49 490.92C224.85 497.83 227.85 504.99 231.26 512.37L229.46 513.41C226.28 508.84 222.87 504.13 219.21 499.38C217.37 497.01 215.47 494.62 213.44 492.29C212.42 491.13 211.38 489.98 210.28 488.89C209.73 488.35 209.16 487.82 208.58 487.35C208.01 486.89 207.35 486.43 206.87 486.29C206.74 486.25 206.77 486.27 206.72 486.29C206.72 486.24 206.61 486.51 206.59 486.83C206.54 487.47 206.63 488.24 206.78 489C207.07 490.53 207.55 492.09 208.07 493.65C209.12 496.77 210.4 499.89 211.75 503.03C214.48 509.31 217.55 515.69 220.86 522.16L219.51 523.06C216.97 519.99 214.3 516.9 211.48 513.83C210.07 512.3 208.61 510.77 207.08 509.3C206.31 508.57 205.52 507.85 204.7 507.2C204.29 506.89 203.85 506.57 203.45 506.37C203.31 506.28 203.03 506.2 202.98 506.44C202.95 506.52 202.94 506.57 202.93 506.67C202.9 506.84 202.91 507.05 202.91 507.24C202.93 507.64 202.96 508.05 203.03 508.47C203.16 509.31 203.36 510.15 203.6 511C204.07 512.69 204.67 514.38 205.32 516.06C206.64 519.42 208.19 522.75 209.87 526.07C213.26 532.69 217.21 539.25 221.74 545.54C226.39 552 230.7 556.75 234.33 560.12C237.96 563.49 240.91 565.45 242.82 566.56C244.73 567.67 245.57 568.02 245.28 567.97C245 567.89 243.59 567.38 241.38 566.1C239.17 564.82 236.19 562.72 232.84 559.62C229.49 556.53 225.77 552.45 221.95 547.44C218.13 542.43 214.18 536.49 210.4 529.67C208.51 526.26 206.66 522.63 204.97 518.74C204.13 516.79 203.33 514.79 202.64 512.68C202.3 511.63 201.99 510.55 201.75 509.42C201.63 508.86 201.54 508.28 201.49 507.68C201.46 507.38 201.46 507.07 201.47 506.75L201.49 506.49C201.5 506.37 201.51 506.25 201.54 506.14C201.61 505.92 201.66 505.69 201.75 505.47C201.92 505.12 202.24 504.84 202.63 504.77C203.01 504.7 203.43 504.79 203.83 504.96C203.92 504.99 204.04 505.06 204.11 505.09C204.18 505.12 204.24 505.16 204.3 505.19C204.43 505.26 204.54 505.33 204.66 505.41C204.89 505.56 205.11 505.71 205.33 505.87C206.19 506.5 206.96 507.19 207.73 507.89C209.26 509.3 210.72 510.8 212.17 512.33C215.06 515.41 217.91 518.64 220.75 522.01L219.37 522.93C216.6 517.63 213.89 512.14 211.28 506.44C209.98 503.58 208.71 500.68 207.55 497.68C206.97 496.18 206.41 494.66 205.91 493.11C205.42 491.55 204.95 489.97 204.73 488.23C204.69 487.79 204.64 487.35 204.67 486.86C204.69 486.62 204.7 486.37 204.77 486.1C204.82 485.85 204.92 485.54 205.14 485.2C205.53 484.53 206.36 484.23 207.1 484.4C207.73 484.54 208.13 484.77 208.54 485.01C210.08 486 211.25 487.18 212.43 488.37C214.76 490.78 216.89 493.35 218.99 495.96C223.17 501.2 227.17 506.65 231.08 512.24L229.37 513.23C226.57 507.22 223.95 501.11 221.63 494.82C220.48 491.67 219.4 488.49 218.56 485.2C218.15 483.55 217.79 481.88 217.62 480.12C217.54 479.24 217.51 478.34 217.65 477.37C217.74 476.88 217.84 476.38 218.11 475.86C218.37 475.35 218.84 474.81 219.46 474.53C220.08 474.25 220.7 474.22 221.24 474.28C221.51 474.34 221.79 474.4 222.06 474.47C222.3 474.56 222.53 474.67 222.76 474.78C223.64 475.24 224.36 475.81 225.01 476.42C226.31 477.63 227.39 478.96 228.43 480.31C230.48 483.03 232.26 485.88 233.96 488.76C237.35 494.54 240.38 500.43 243.21 506.4L241.22 507.03C239.77 498.95 237.65 491.06 235.97 483.15C235.56 481.16 235.17 479.18 234.94 477.13C234.83 476.1 234.74 475.07 234.84 473.94C234.91 473.37 234.97 472.76 235.41 472.05C235.65 471.68 236.07 471.32 236.54 471.19C237.03 471.04 237.5 471.09 237.84 471.17C238.54 471.35 239.03 471.65 239.5 471.95C239.97 472.26 240.37 472.57 240.77 472.93C241.59 473.67 242.29 474.47 242.87 475.31C244.07 476.97 245.02 478.72 245.91 480.47C247.65 483.99 249.07 487.56 250.38 491.11C251.69 494.66 252.85 498.2 253.94 501.69C256.12 508.68 257.99 515.5 259.63 522.11L257.72 522.69C257.45 521.86 257.33 521.18 257.22 520.44C257.11 519.71 257.05 518.99 257.01 518.27C256.93 516.83 256.97 515.42 257.08 514.03C257.29 511.24 257.81 508.59 258.49 505.98C258.87 504.64 259.44 503.36 260.19 502.2C260.96 501.05 261.88 499.98 263.18 499.25C263.82 498.89 264.59 498.61 265.47 498.66C266.35 498.68 267.19 499.19 267.71 499.79C268.74 501.04 268.94 502.4 269.1 503.65C269.9 513.08 270.62 521.49 271.22 528.64C271.37 530.42 271.52 532.13 271.55 533.8C271.55 535.46 271.51 537.03 271.39 538.5C271.17 541.45 270.78 544.03 270.39 546.22C269.59 550.6 268.79 553.42 268.41 554.58L268.5 554.6Z"
     fill="black"
     id="path176" />
  <path
     d="M263.333 569.883C270.018 565.037 271.543 555.737 266.739 549.11C261.935 542.483 252.621 541.04 245.937 545.886C239.252 550.732 237.727 560.033 242.531 566.659C247.335 573.286 256.648 574.73 263.333 569.883Z"
     fill="#CB9B7C"
     id="path178" />
  <path
     d="M52.5399 422.22C51.9299 417.71 51.4299 413.2 50.9299 408.69C50.4699 404.18 50.0099 399.66 49.5899 395.15L48.4199 381.6L47.4099 368.04L46.3999 354.39L52.8599 366.68C54.7199 370.23 56.5099 373.81 58.3399 377.37L63.7199 388.11L57.4099 388.84L60.0499 376.36L62.7799 363.9C64.6299 355.6 66.5199 347.31 68.4999 339.04L72.4899 322.42L74.8699 339.22L76.6199 351.56L78.2299 363.92L73.4699 363.01L76.5299 358.24L79.6499 353.51C81.7399 350.37 83.7799 347.19 85.9199 344.07C88.0499 340.95 90.1299 337.8 92.3099 334.7C94.4599 331.59 96.6399 328.49 98.8699 325.43C97.2399 328.85 95.5499 332.24 93.8399 335.61C92.1599 339 90.3699 342.33 88.6399 345.69C86.9199 349.05 85.0899 352.36 83.3199 355.69L80.6399 360.68L77.8999 365.64L74.5199 371.76L73.1399 364.73L70.7399 352.5L68.4699 340.24L74.8399 340.42C73.1699 348.76 71.3999 357.08 69.5899 365.38L66.8299 377.83L63.9799 390.26L61.7699 399.89L57.6599 390.99L52.6299 380.08C50.9899 376.43 49.2999 372.8 47.6999 369.13L53.1499 367.77L53.2699 381.36L53.2299 394.96C53.1899 399.49 53.1099 404.03 53.0199 408.57C52.8999 413.11 52.7799 417.65 52.5399 422.19V422.22Z"
     fill="#4D4499"
     id="path180" />
  <defs
     id="defs336">
    <filter
       id="filter0_d_196_1378"
       x="67.4401"
       y="0.48"
       width="574.23"
       height="321.24"
       filterUnits="userSpaceOnUse"
       color-interpolation-filters="sRGB">
      <feFlood
         flood-opacity="0"
         result="BackgroundImageFix"
         id="feFlood306" />
      <feColorMatrix
         in="SourceAlpha"
         type="matrix"
         values="0 0 0 0 0 0 0 0 0 0 0 0 0 0 0 0 0 0 127 0"
         result="hardAlpha"
         id="feColorMatrix308" />
      <feOffset
         dx="3.48"
         dy="4.64"
         id="feOffset310" />
      <feGaussianBlur
         stdDeviation="15.08"
         id="feGaussianBlur312" />
      <feColorMatrix
         type="matrix"
         values="0 0 0 0 0 0 0 0 0 0 0 0 0 0 0 0 0 0 0.35 0"
         id="feColorMatrix314" />
      <feBlend
         mode="normal"
         in2="BackgroundImageFix"
         result="effect1_dropShadow_196_1378"
         id="feBlend316" />
      <feBlend
         mode="normal"
         in="SourceGraphic"
         in2="effect1_dropShadow_196_1378"
         result="shape"
         id="feBlend318" />
    </filter>
    <filter
       id="filter1_d_196_1378"
       x="474.09"
       y="185.76"
       width="732.67"
       height="531.36"
       filterUnits="userSpaceOnUse"
       color-interpolation-filters="sRGB">
      <feFlood
         flood-opacity="0"
         result="BackgroundImageFix"
         id="feFlood321" />
      <feColorMatrix
         in="SourceAlpha"
         type="matrix"
         values="0 0 0 0 0 0 0 0 0 0 0 0 0 0 0 0 0 0 127 0"
         result="hardAlpha"
         id="feColorMatrix323" />
      <feOffset
         dx="3.43"
         dy="4.58"
         id="feOffset325" />
      <feGaussianBlur
         stdDeviation="14.87"
         id="feGaussianBlur327" />
      <feColorMatrix
         type="matrix"
         values="0 0 0 0 0 0 0 0 0 0 0 0 0 0 0 0 0 0 0.35 0"
         id="feColorMatrix329" />
      <feBlend
         mode="normal"
         in2="BackgroundImageFix"
         result="effect1_dropShadow_196_1378"
         id="feBlend331" />
      <feBlend
         mode="normal"
         in="SourceGraphic"
         in2="effect1_dropShadow_196_1378"
         result="shape"
         id="feBlend333" />
    </filter>
  </defs>
</svg>
